<?xml version="1.0" encoding="UTF-8" standalone="no"?>
<svg
   xmlns:dc="http://purl.org/dc/elements/1.1/"
   xmlns:cc="http://creativecommons.org/ns#"
   xmlns:rdf="http://www.w3.org/1999/02/22-rdf-syntax-ns#"
   xmlns:svg="http://www.w3.org/2000/svg"
   xmlns="http://www.w3.org/2000/svg"
   viewBox="0 0 2560 1440"
   height="1440"
   width="2560"
   xml:space="preserve"
   id="svg2"
   version="1.1"><metadata
     id="metadata8"><rdf:RDF><cc:Work
         rdf:about=""><dc:format>image/svg+xml</dc:format><dc:type
           rdf:resource="http://purl.org/dc/dcmitype/StillImage" /></cc:Work></rdf:RDF></metadata><defs
     id="defs6" /><g
     transform="matrix(1.3333333,0,0,-1.3333333,0,1440)"
     id="g10"><g
       transform="scale(0.1)"
       id="g12"><g
         transform="scale(1.17791)"
         id="g14"><path
           id="path16"
           style="fill:#ffffff;fill-opacity:1;fill-rule:nonzero;stroke:none"
           d="M 16300,0 H 0 V 9168.75 H 16300 V 0" /></g><path
         id="path18"
         style="fill:#ed1c24;fill-opacity:1;fill-rule:nonzero;stroke:none"
         d="m 12856.9,7219.49 c -60.1,0 -109,-48.87 -109,-108.96 0,-60.09 48.9,-108.97 109,-108.97 60.1,0 109,48.88 109,108.97 0,60.09 -48.9,108.96 -109,108.96 z m 0,-247.92 c -76.6,0 -139,62.34 -139,138.96 0,76.63 62.4,138.96 139,138.96 76.6,0 139,-62.33 139,-138.96 0,-76.62 -62.4,-138.96 -139,-138.96" /><path
         id="path20"
         style="fill:#e1e0de;fill-opacity:1;fill-rule:nonzero;stroke:none"
         d="m 14282.4,7110.53 c 0,-102.69 -83.2,-185.94 -185.9,-185.94 -102.7,0 -185.9,83.25 -185.9,185.94 0,102.69 83.2,185.93 185.9,185.93 102.7,0 185.9,-83.24 185.9,-185.93" /><path
         id="path22"
         style="fill:#100f0d;fill-opacity:1;fill-rule:nonzero;stroke:none"
         d="m 14096.5,7281.46 c -94.3,0 -170.9,-76.67 -170.9,-170.93 0,-94.26 76.6,-170.95 170.9,-170.95 94.3,0 171,76.69 171,170.95 0,94.26 -76.7,170.93 -171,170.93 z m 0,-371.87 c -110.8,0 -200.9,90.15 -200.9,200.94 0,110.8 90.1,200.93 200.9,200.93 110.8,0 200.9,-90.13 200.9,-200.93 0,-110.79 -90.1,-200.94 -200.9,-200.94" /><path
         id="path24"
         style="fill:#100f0d;fill-opacity:1;fill-rule:nonzero;stroke:none"
         d="m 15336.1,7219.49 c -60.1,0 -109,-48.87 -109,-108.96 0,-60.09 48.9,-108.97 109,-108.97 60.1,0 109,48.88 109,108.97 0,60.09 -48.9,108.96 -109,108.96 z m 0,-247.92 c -76.6,0 -139,62.34 -139,138.96 0,76.63 62.4,138.96 139,138.96 76.6,0 139,-62.33 139,-138.96 0,-76.62 -62.4,-138.96 -139,-138.96" /><path
         id="path26"
         style="fill:#e1e0de;fill-opacity:1;fill-rule:nonzero;stroke:none"
         d="m 13042.8,5870.93 c 0,-102.69 -83.2,-185.94 -185.9,-185.94 -102.7,0 -185.9,83.25 -185.9,185.94 0,102.69 83.2,185.94 185.9,185.94 102.7,0 185.9,-83.25 185.9,-185.94" /><path
         id="path28"
         style="fill:#100f0d;fill-opacity:1;fill-rule:nonzero;stroke:none"
         d="m 12856.9,6041.87 c -94.3,0 -170.9,-76.68 -170.9,-170.94 0,-94.26 76.6,-170.94 170.9,-170.94 94.3,0 170.9,76.68 170.9,170.94 0,94.26 -76.6,170.94 -170.9,170.94 z m 0,-371.88 c -110.8,0 -200.9,90.14 -200.9,200.94 0,110.79 90.1,200.94 200.9,200.94 110.8,0 200.9,-90.15 200.9,-200.94 0,-110.8 -90.1,-200.94 -200.9,-200.94" /><path
         id="path30"
         style="fill:#100f0d;fill-opacity:1;fill-rule:nonzero;stroke:none"
         d="m 14096.5,5979.89 c -60.1,0 -109,-48.87 -109,-108.96 0,-60.08 48.9,-108.96 109,-108.96 60.1,0 109,48.88 109,108.96 0,60.09 -48.9,108.96 -109,108.96 z m 0,-247.92 c -76.6,0 -139,62.34 -139,138.96 0,76.62 62.4,138.96 139,138.96 76.6,0 139,-62.34 139,-138.96 0,-76.62 -62.4,-138.96 -139,-138.96" /><path
         id="path32"
         style="fill:#100f0d;fill-opacity:1;fill-rule:nonzero;stroke:none"
         d="m 15336.1,5979.89 c -60.1,0 -109,-48.87 -109,-108.96 0,-60.08 48.9,-108.96 109,-108.96 60.1,0 109,48.88 109,108.96 0,60.09 -48.9,108.96 -109,108.96 z m 0,-247.92 c -76.6,0 -139,62.34 -139,138.96 0,76.62 62.4,138.96 139,138.96 76.6,0 139,-62.34 139,-138.96 0,-76.62 -62.4,-138.96 -139,-138.96" /><path
         id="path34"
         style="fill:#100f0d;fill-opacity:1;fill-rule:nonzero;stroke:none"
         d="m 12856.9,4740.28 c -60.1,0 -109,-48.87 -109,-108.95 0,-60.09 48.9,-108.97 109,-108.97 60.1,0 109,48.88 109,108.97 0,60.08 -48.9,108.95 -109,108.95 z m 0,-247.91 c -76.6,0 -139,62.34 -139,138.96 0,76.62 62.4,138.95 139,138.95 76.6,0 139,-62.33 139,-138.95 0,-76.62 -62.4,-138.96 -139,-138.96" /><path
         id="path36"
         style="fill:#100f0d;fill-opacity:1;fill-rule:nonzero;stroke:none"
         d="m 15336.1,4740.28 c -60.1,0 -109,-48.87 -109,-108.95 0,-60.09 48.9,-108.97 109,-108.97 60.1,0 109,48.88 109,108.97 0,60.08 -48.9,108.95 -109,108.95 z m 0,-247.91 c -76.6,0 -139,62.34 -139,138.96 0,76.62 62.4,138.95 139,138.95 76.6,0 139,-62.33 139,-138.95 0,-76.62 -62.4,-138.96 -139,-138.96" /><path
         id="path38"
         style="fill:#100f0d;fill-opacity:1;fill-rule:nonzero;stroke:none"
         d="m 13166.8,7405.43 c -3.8,0 -7.7,1.46 -10.6,4.39 -5.9,5.86 -5.9,15.36 0,21.22 l 619.8,619.79 c 5.9,5.85 15.3,5.85 21.2,0 5.9,-5.86 5.9,-15.36 0,-21.22 l -619.8,-619.79 c -2.9,-2.93 -6.8,-4.39 -10.6,-4.39" /><path
         id="path40"
         style="fill:#100f0d;fill-opacity:1;fill-rule:nonzero;stroke:none"
         d="m 15026.2,7405.43 c -3.8,0 -7.7,1.46 -10.6,4.39 l -619.8,619.79 c -5.8,5.86 -5.8,15.36 0,21.22 5.9,5.85 15.4,5.85 21.2,0 l 619.8,-619.79 c 5.9,-5.86 5.9,-15.36 0,-21.22 -2.9,-2.93 -6.8,-4.39 -10.6,-4.39" /><path
         id="path42"
         style="fill:#100f0d;fill-opacity:1;fill-rule:nonzero;stroke:none"
         d="m 14096.5,7405.43 c -8.3,0 -15,6.72 -15,15 v 619.79 c 0,8.28 6.7,15 15,15 8.3,0 15,-6.72 15,-15 v -619.79 c 0,-8.28 -6.7,-15 -15,-15" /><path
         id="path44"
         style="fill:#100f0d;fill-opacity:1;fill-rule:nonzero;stroke:none"
         d="m 13786.6,6165.83 c -3.8,0 -7.7,1.46 -10.6,4.38 l -619.8,619.82 c -5.9,5.85 -5.9,15.35 0,21.21 5.9,5.85 15.4,5.85 21.2,0 l 619.8,-619.81 c 5.9,-5.85 5.9,-15.36 0,-21.22 -2.9,-2.92 -6.8,-4.38 -10.6,-4.38" /><path
         id="path46"
         style="fill:#100f0d;fill-opacity:1;fill-rule:nonzero;stroke:none"
         d="m 14406.4,6165.83 c -3.8,0 -7.7,1.46 -10.6,4.38 -5.8,5.86 -5.8,15.37 0,21.22 l 619.8,619.81 c 5.9,5.85 15.4,5.85 21.2,0 5.9,-5.86 5.9,-15.36 0,-21.21 L 14417,6170.21 c -2.9,-2.92 -6.8,-4.38 -10.6,-4.38" /><path
         id="path48"
         style="fill:#100f0d;fill-opacity:1;fill-rule:nonzero;stroke:none"
         d="m 12856.9,6165.83 c -8.3,0 -15,6.71 -15,14.99 v 619.81 c 0,8.29 6.7,15 15,15 8.3,0 15,-6.71 15,-15 v -619.81 c 0,-8.28 -6.7,-14.99 -15,-14.99" /><path
         id="path50"
         style="fill:#100f0d;fill-opacity:1;fill-rule:nonzero;stroke:none"
         d="m 15336.1,6165.83 c -8.3,0 -15,6.71 -15,14.99 v 619.81 c 0,8.29 6.7,15 15,15 8.3,0 15,-6.71 15,-15 v -619.81 c 0,-8.28 -6.7,-14.99 -15,-14.99" /><path
         id="path52"
         style="fill:#100f0d;fill-opacity:1;fill-rule:nonzero;stroke:none"
         d="m 15026.2,4864.25 c -3.8,0 -7.7,1.46 -10.6,4.39 l -619.8,619.8 c -5.8,5.86 -5.8,15.36 0,21.21 5.9,5.86 15.4,5.86 21.2,0 l 619.8,-619.8 c 5.9,-5.86 5.9,-15.35 0,-21.21 -2.9,-2.93 -6.8,-4.39 -10.6,-4.39" /><path
         id="path54"
         style="fill:#100f0d;fill-opacity:1;fill-rule:nonzero;stroke:none"
         d="m 12856.9,4864.25 c -8.3,0 -15,6.72 -15,15 v 619.79 c 0,8.29 6.7,15 15,15 8.3,0 15,-6.71 15,-15 v -619.79 c 0,-8.28 -6.7,-15 -15,-15" /><path
         id="path56"
         style="fill:#100f0d;fill-opacity:1;fill-rule:nonzero;stroke:none"
         d="m 15336.1,4864.25 c -8.3,0 -15,6.72 -15,15 v 619.79 c 0,8.29 6.7,15 15,15 8.3,0 15,-6.71 15,-15 v -619.79 c 0,-8.28 -6.7,-15 -15,-15" /><path
         id="path58"
         style="fill:#100f0d;fill-opacity:1;fill-rule:nonzero;stroke:none"
         d="m 15026.2,7095.53 h -619.8 c -8.3,0 -15,6.72 -15,15 0,8.28 6.7,15 15,15 h 619.8 c 8.3,0 15,-6.72 15,-15 0,-8.28 -6.7,-15 -15,-15" /><path
         id="path60"
         style="fill:#100f0d;fill-opacity:1;fill-rule:nonzero;stroke:none"
         d="m 13786.6,5855.93 h -619.8 c -8.3,0 -15,6.72 -15,15 0,8.28 6.7,15 15,15 h 619.8 c 8.3,0 15,-6.72 15,-15 0,-8.28 -6.7,-15 -15,-15" /><path
         id="path62"
         style="fill:#100f0d;fill-opacity:1;fill-rule:nonzero;stroke:none"
         d="m 15336.1,7219.49 c -60.1,0 -109,-48.87 -109,-108.96 0,-60.09 48.9,-108.97 109,-108.97 60.1,0 109,48.88 109,108.97 0,60.09 -48.9,108.96 -109,108.96 z m 0,-247.92 c -76.6,0 -139,62.34 -139,138.96 0,76.63 62.4,138.96 139,138.96 76.6,0 139,-62.33 139,-138.96 0,-76.62 -62.4,-138.96 -139,-138.96" /><g
         transform="scale(1.02544)"
         id="g64"><path
           id="path66"
           style="fill:#100f0d;fill-opacity:1;fill-rule:nonzero;stroke:none"
           d="m 16164.4,7040.37 c -58.6,0 -106.2,-47.66 -106.2,-106.25 0,-58.6 47.6,-106.27 106.2,-106.27 58.7,0 106.3,47.67 106.3,106.27 0,58.59 -47.6,106.25 -106.3,106.25 z m 0,-241.77 c -74.6,0 -135.5,60.8 -135.5,135.52 0,74.72 60.9,135.51 135.5,135.51 74.8,0 135.6,-60.79 135.6,-135.51 0,-74.72 -60.8,-135.52 -135.6,-135.52" /></g><g
         transform="scale(1.10149)"
         id="g68"><path
           id="path70"
           style="fill:#100f0d;fill-opacity:1;fill-rule:nonzero;stroke:none"
           d="m 16173.8,6554.29 c -54.6,0 -98.9,-44.37 -98.9,-98.92 0,-54.55 44.3,-98.93 98.9,-98.93 54.6,0 99,44.38 99,98.93 0,54.55 -44.4,98.92 -99,98.92 z m 0,-225.08 c -69.5,0 -126.2,56.6 -126.2,126.16 0,69.57 56.7,126.16 126.2,126.16 69.5,0 126.2,-56.59 126.2,-126.16 0,-69.56 -56.7,-126.16 -126.2,-126.16" /></g><path
         id="path72"
         style="fill:#100f0d;fill-opacity:1;fill-rule:nonzero;stroke:none"
         d="m 15336.1,5979.89 c -60.1,0 -109,-48.87 -109,-108.96 0,-60.08 48.9,-108.96 109,-108.96 60.1,0 109,48.88 109,108.96 0,60.09 -48.9,108.96 -109,108.96 z m 0,-247.92 c -76.6,0 -139,62.34 -139,138.96 0,76.62 62.4,138.96 139,138.96 76.6,0 139,-62.34 139,-138.96 0,-76.62 -62.4,-138.96 -139,-138.96" /><g
         transform="scale(1.02832)"
         id="g74"><path
           id="path76"
           style="fill:#e1e0de;fill-opacity:1;fill-rule:nonzero;stroke:none"
           d="m 16300,5709.25 c 0,-99.86 -80.9,-180.82 -180.8,-180.82 -99.9,0 -180.8,80.96 -180.8,180.82 0,99.86 80.9,180.82 180.8,180.82 99.9,0 180.8,-80.96 180.8,-180.82" /></g><g
         transform="scale(1.02924)"
         id="g78"><path
           id="path80"
           style="fill:#100f0d;fill-opacity:1;fill-rule:nonzero;stroke:none"
           d="m 16104.8,5870.23 c -91.6,0 -166,-74.5 -166,-166.09 0,-91.58 74.4,-166.08 166,-166.08 91.6,0 166.1,74.5 166.1,166.08 0,91.59 -74.5,166.09 -166.1,166.09 z m 0,-361.32 c -107.6,0 -195.2,87.58 -195.2,195.23 0,107.65 87.6,195.24 195.2,195.24 107.7,0 195.2,-87.59 195.2,-195.24 0,-107.65 -87.5,-195.23 -195.2,-195.23" /></g><g
         transform="scale(1.10149)"
         id="g82"><path
           id="path84"
           style="fill:#ed1c24;fill-opacity:1;fill-rule:nonzero;stroke:none"
           d="m 16173.8,5428.91 c -54.6,0 -98.9,-44.37 -98.9,-98.93 0,-54.54 44.3,-98.92 98.9,-98.92 54.6,0 99,44.38 99,98.92 0,54.56 -44.4,98.93 -99,98.93 z m 0,-225.08 c -69.5,0 -126.2,56.59 -126.2,126.15 0,69.57 56.7,126.16 126.2,126.16 69.5,0 126.2,-56.59 126.2,-126.16 0,-69.56 -56.7,-126.15 -126.2,-126.15" /></g><g
         transform="scale(1.17754)"
         id="g86"><path
           id="path88"
           style="fill:#100f0d;fill-opacity:1;fill-rule:nonzero;stroke:none"
           d="m 16182,5078.29 c -51.1,0 -92.6,-41.5 -92.6,-92.53 0,-51.02 41.5,-92.53 92.6,-92.53 51,0 92.5,41.51 92.5,92.53 0,51.03 -41.5,92.53 -92.5,92.53 z m 0,-210.54 c -65.1,0 -118.1,52.94 -118.1,118.01 0,65.07 53,118.01 118.1,118.01 65,0 118,-52.94 118,-118.01 0,-65.07 -53,-118.01 -118,-118.01" /></g><path
         id="path90"
         style="fill:#100f0d;fill-opacity:1;fill-rule:nonzero;stroke:none"
         d="m 15336.1,4740.28 c -60.1,0 -109,-48.87 -109,-108.95 0,-60.09 48.9,-108.97 109,-108.97 60.1,0 109,48.88 109,108.97 0,60.08 -48.9,108.95 -109,108.95 z m 0,-247.91 c -76.6,0 -139,62.34 -139,138.96 0,76.62 62.4,138.95 139,138.95 76.6,0 139,-62.33 139,-138.95 0,-76.62 -62.4,-138.96 -139,-138.96" /><g
         transform="scale(1.02544)"
         id="g92"><path
           id="path94"
           style="fill:#100f0d;fill-opacity:1;fill-rule:nonzero;stroke:none"
           d="m 16164.4,4622.67 c -58.6,0 -106.2,-47.66 -106.2,-106.24 0,-58.6 47.6,-106.27 106.2,-106.27 58.7,0 106.3,47.67 106.3,106.27 0,58.58 -47.6,106.24 -106.3,106.24 z m 0,-241.76 c -74.6,0 -135.5,60.8 -135.5,135.52 0,74.71 60.9,135.5 135.5,135.5 74.8,0 135.6,-60.79 135.6,-135.5 0,-74.72 -60.8,-135.52 -135.6,-135.52" /></g><g
         transform="scale(1.17754)"
         id="g96"><path
           id="path98"
           style="fill:#100f0d;fill-opacity:1;fill-rule:nonzero;stroke:none"
           d="m 16182,4025.58 c -51.1,0 -92.6,-41.5 -92.6,-92.52 0,-51.03 41.5,-92.55 92.6,-92.55 51,0 92.5,41.52 92.5,92.55 0,51.02 -41.5,92.52 -92.5,92.52 z m 0,-210.53 c -65.1,0 -118.1,52.94 -118.1,118.01 0,65.06 53,118 118.1,118 65,0 118,-52.94 118,-118 0,-65.07 -53,-118.01 -118,-118.01" /></g><path
         id="path100"
         style="fill:#100f0d;fill-opacity:1;fill-rule:nonzero;stroke:none"
         d="m 16265.8,7405.43 c -3.8,0 -7.7,1.46 -10.6,4.39 l -619.8,619.79 c -5.9,5.86 -5.9,15.36 0,21.22 5.9,5.85 15.4,5.85 21.2,0 l 619.8,-619.79 c 5.9,-5.86 5.9,-15.36 0,-21.22 -2.9,-2.93 -6.8,-4.39 -10.6,-4.39" /><g
         transform="scale(1.07496)"
         id="g102"><path
           id="path104"
           style="fill:#100f0d;fill-opacity:1;fill-rule:nonzero;stroke:none"
           d="m 15708.1,6889.01 c -3.6,0 -7.2,1.36 -9.9,4.08 -5.5,5.45 -5.5,14.29 0,19.74 l 576.6,576.57 c 5.5,5.44 14.3,5.44 19.7,0 5.5,-5.45 5.5,-14.29 0,-19.74 l -576.6,-576.57 c -2.7,-2.72 -6.3,-4.08 -9.8,-4.08" /></g><g
         transform="scale(1.09388)"
         id="g106"><path
           id="path108"
           style="fill:#100f0d;fill-opacity:1;fill-rule:nonzero;stroke:none"
           d="m 16286.3,6769.85 c -7.6,0 -13.7,6.14 -13.7,13.71 v 566.6 c 0,7.57 6.1,13.71 13.7,13.71 7.6,0 13.7,-6.14 13.7,-13.71 v -566.6 c 0,-7.57 -6.1,-13.71 -13.7,-13.71" /></g><path
         id="path110"
         style="fill:#100f0d;fill-opacity:1;fill-rule:nonzero;stroke:none"
         d="m 16265.8,6165.83 c -3.8,0 -7.7,1.46 -10.6,4.38 l -619.8,619.82 c -5.9,5.85 -5.9,15.35 0,21.21 5.9,5.85 15.4,5.85 21.2,0 l 619.8,-619.81 c 5.9,-5.85 5.9,-15.36 0,-21.22 -2.9,-2.92 -6.8,-4.38 -10.6,-4.38" /><g
         transform="scale(1.07496)"
         id="g112"><path
           id="path114"
           style="fill:#100f0d;fill-opacity:1;fill-rule:nonzero;stroke:none"
           d="m 16284.7,5735.85 c -3.6,0 -7.2,1.36 -9.9,4.08 l -576.6,576.6 c -5.5,5.43 -5.5,14.27 0,19.73 5.5,5.44 14.3,5.44 19.7,0 l 576.6,-576.59 c 5.5,-5.44 5.5,-14.29 0,-19.74 -2.7,-2.72 -6.3,-4.08 -9.8,-4.08" /></g><g
         transform="scale(1.01783)"
         id="g116"><path
           id="path118"
           style="fill:#100f0d;fill-opacity:1;fill-rule:nonzero;stroke:none"
           d="m 16285.3,6057.8 c -8.2,0 -14.8,6.58 -14.8,14.72 v 608.95 c 0,8.15 6.6,14.74 14.8,14.74 8.1,0 14.7,-6.59 14.7,-14.74 v -608.95 c 0,-8.14 -6.6,-14.72 -14.7,-14.72" /></g><path
         id="path120"
         style="fill:#100f0d;fill-opacity:1;fill-rule:nonzero;stroke:none"
         d="m 15646,4864.25 c -3.8,0 -7.7,1.46 -10.6,4.39 -5.9,5.86 -5.9,15.35 0,21.21 l 619.8,619.8 c 5.9,5.86 15.3,5.86 21.2,0 5.9,-5.85 5.9,-15.35 0,-21.21 l -619.8,-619.8 c -2.9,-2.93 -6.8,-4.39 -10.6,-4.39" /><g
         transform="scale(1.07496)"
         id="g122"><path
           id="path124"
           style="fill:#100f0d;fill-opacity:1;fill-rule:nonzero;stroke:none"
           d="m 16284.7,4525.04 c -3.6,0 -7.2,1.36 -9.9,4.08 l -576.6,576.58 c -5.5,5.45 -5.5,14.29 0,19.73 5.5,5.45 14.3,5.45 19.7,0 l 576.6,-576.57 c 5.5,-5.46 5.5,-14.29 0,-19.74 -2.7,-2.72 -6.3,-4.08 -9.8,-4.08" /></g><g
         transform="scale(1.15101)"
         id="g126"><path
           id="path128"
           style="fill:#100f0d;fill-opacity:1;fill-rule:nonzero;stroke:none"
           d="m 16285.7,4226.06 c -3.3,0 -6.7,1.27 -9.2,3.82 l -538.5,538.48 c -5.2,5.09 -5.2,13.34 0,18.43 5,5.09 13.4,5.09 18.4,0 l 538.5,-538.48 c 5.1,-5.1 5.1,-13.34 0,-18.43 -2.5,-2.55 -5.9,-3.82 -9.2,-3.82" /></g><g
         transform="scale(1.01783)"
         id="g130"><path
           id="path132"
           style="fill:#100f0d;fill-opacity:1;fill-rule:nonzero;stroke:none"
           d="m 16285.3,4779.02 c -8.2,0 -14.8,6.6 -14.8,14.74 v 608.93 c 0,8.14 6.6,14.73 14.8,14.73 8.1,0 14.7,-6.59 14.7,-14.73 v -608.93 c 0,-8.14 -6.6,-14.74 -14.7,-14.74" /></g><g
         transform="scale(1.09388)"
         id="g134"><path
           id="path136"
           style="fill:#100f0d;fill-opacity:1;fill-rule:nonzero;stroke:none"
           d="m 16286.3,4446.77 c -7.6,0 -13.7,6.14 -13.7,13.71 v 566.6 c 0,7.58 6.1,13.71 13.7,13.71 7.6,0 13.7,-6.13 13.7,-13.71 v -566.6 c 0,-7.57 -6.1,-13.71 -13.7,-13.71" /></g><g
         transform="scale(1.16993)"
         id="g138"><path
           id="path140"
           style="fill:#100f0d;fill-opacity:1;fill-rule:nonzero;stroke:none"
           d="m 16287.2,4157.72 c -7.1,0 -12.8,5.74 -12.8,12.82 v 529.76 c 0,7.09 5.7,12.83 12.8,12.83 7.1,0 12.8,-5.74 12.8,-12.83 v -529.76 c 0,-7.08 -5.7,-12.82 -12.8,-12.82" /></g><path
         id="path142"
         style="fill:#100f0d;fill-opacity:1;fill-rule:nonzero;stroke:none"
         d="M 16265.8,7095.53 H 15646 c -8.3,0 -15,6.72 -15,15 0,8.28 6.7,15 15,15 h 619.8 c 8.3,0 15,-6.72 15,-15 0,-8.28 -6.7,-15 -15,-15" /><g
         transform="scale(1.07487)"
         id="g144"><path
           id="path146"
           style="fill:#100f0d;fill-opacity:1;fill-rule:nonzero;stroke:none"
           d="m 16286,5448.03 h -576.6 c -7.7,0 -13.9,6.25 -13.9,13.95 0,7.71 6.2,13.96 13.9,13.96 h 576.6 c 7.8,0 14,-6.25 14,-13.96 0,-7.7 -6.2,-13.95 -14,-13.95" /></g><path
         id="path148"
         style="fill:#100f0d;fill-opacity:1;fill-rule:nonzero;stroke:none"
         d="M 16265.8,4616.34 H 15646 c -8.3,0 -15,6.71 -15,14.99 0,8.29 6.7,15 15,15 h 619.8 c 8.3,0 15,-6.71 15,-15 0,-8.28 -6.7,-14.99 -15,-14.99" /><g
         transform="scale(1.15092)"
         id="g150"><path
           id="path152"
           style="fill:#100f0d;fill-opacity:1;fill-rule:nonzero;stroke:none"
           d="m 16287,4011 h -538.6 c -7.2,0 -13,5.83 -13,13.03 0,7.2 5.8,13.03 13,13.03 h 538.6 c 7.2,0 13,-5.83 13,-13.03 0,-7.2 -5.8,-13.03 -13,-13.03" /></g><path
         id="path154"
         style="fill:#ed1c24;fill-opacity:1;fill-rule:nonzero;stroke:none"
         d="m 12856.9,10938.3 c -60.1,0 -109,-48.9 -109,-109 0,-60.1 48.9,-108.9 109,-108.9 60.1,0 109,48.8 109,108.9 0,60.1 -48.9,109 -109,109 z m 0,-247.9 c -76.6,0 -139,62.3 -139,138.9 0,76.6 62.4,139 139,139 76.6,0 139,-62.4 139,-139 0,-76.6 -62.4,-138.9 -139,-138.9" /><path
         id="path156"
         style="fill:#e1e0de;fill-opacity:1;fill-rule:nonzero;stroke:none"
         d="m 14282.4,10829.3 c 0,-102.7 -83.2,-185.9 -185.9,-185.9 -102.7,0 -185.9,83.2 -185.9,185.9 0,102.7 83.2,186 185.9,186 102.7,0 185.9,-83.3 185.9,-186" /><path
         id="path158"
         style="fill:#100f0d;fill-opacity:1;fill-rule:nonzero;stroke:none"
         d="m 14096.5,11000.3 c -94.3,0 -170.9,-76.7 -170.9,-171 0,-94.2 76.6,-170.9 170.9,-170.9 94.3,0 171,76.7 171,170.9 0,94.3 -76.7,171 -171,171 z m 0,-371.9 c -110.8,0 -200.9,90.1 -200.9,200.9 0,110.8 90.1,201 200.9,201 110.8,0 200.9,-90.2 200.9,-201 0,-110.8 -90.1,-200.9 -200.9,-200.9" /><path
         id="path160"
         style="fill:#100f0d;fill-opacity:1;fill-rule:nonzero;stroke:none"
         d="m 15336.1,10938.3 c -60.1,0 -109,-48.9 -109,-109 0,-60.1 48.9,-108.9 109,-108.9 60.1,0 109,48.8 109,108.9 0,60.1 -48.9,109 -109,109 z m 0,-247.9 c -76.6,0 -139,62.3 -139,138.9 0,76.6 62.4,139 139,139 76.6,0 139,-62.4 139,-139 0,-76.6 -62.4,-138.9 -139,-138.9" /><path
         id="path162"
         style="fill:#e1e0de;fill-opacity:1;fill-rule:nonzero;stroke:none"
         d="m 13042.8,9589.72 c 0,-102.68 -83.2,-185.94 -185.9,-185.94 -102.7,0 -185.9,83.26 -185.9,185.94 0,102.7 83.2,185.95 185.9,185.95 102.7,0 185.9,-83.25 185.9,-185.95" /><path
         id="path164"
         style="fill:#100f0d;fill-opacity:1;fill-rule:nonzero;stroke:none"
         d="m 12856.9,9760.67 c -94.3,0 -170.9,-76.69 -170.9,-170.95 0,-94.26 76.6,-170.94 170.9,-170.94 94.3,0 170.9,76.68 170.9,170.94 0,94.26 -76.6,170.95 -170.9,170.95 z m 0,-371.89 c -110.8,0 -200.9,90.15 -200.9,200.94 0,110.8 90.1,200.95 200.9,200.95 110.8,0 200.9,-90.15 200.9,-200.95 0,-110.79 -90.1,-200.94 -200.9,-200.94" /><path
         id="path166"
         style="fill:#100f0d;fill-opacity:1;fill-rule:nonzero;stroke:none"
         d="m 14096.5,9698.69 c -60.1,0 -109,-48.88 -109,-108.97 0,-60.08 48.9,-108.95 109,-108.95 60.1,0 109,48.87 109,108.95 0,60.09 -48.9,108.97 -109,108.97 z m 0,-247.92 c -76.6,0 -139,62.34 -139,138.95 0,76.62 62.4,138.97 139,138.97 76.6,0 139,-62.35 139,-138.97 0,-76.61 -62.4,-138.95 -139,-138.95" /><path
         id="path168"
         style="fill:#100f0d;fill-opacity:1;fill-rule:nonzero;stroke:none"
         d="m 15336.1,9698.69 c -60.1,0 -109,-48.88 -109,-108.97 0,-60.08 48.9,-108.95 109,-108.95 60.1,0 109,48.87 109,108.95 0,60.09 -48.9,108.97 -109,108.97 z m 0,-247.92 c -76.6,0 -139,62.34 -139,138.95 0,76.62 62.4,138.97 139,138.97 76.6,0 139,-62.35 139,-138.97 0,-76.61 -62.4,-138.95 -139,-138.95" /><path
         id="path170"
         style="fill:#ed1c24;fill-opacity:1;fill-rule:nonzero;stroke:none"
         d="m 14096.5,8459.09 c -60.1,0 -109,-48.88 -109,-108.96 0,-60.09 48.9,-108.96 109,-108.96 60.1,0 109,48.87 109,108.96 0,60.08 -48.9,108.96 -109,108.96 z m 0,-247.92 c -76.6,0 -139,62.33 -139,138.96 0,76.61 62.4,138.95 139,138.95 76.6,0 139,-62.34 139,-138.95 0,-76.63 -62.4,-138.96 -139,-138.96" /><path
         id="path172"
         style="fill:#100f0d;fill-opacity:1;fill-rule:nonzero;stroke:none"
         d="m 13786.6,9884.63 c -3.8,0 -7.7,1.46 -10.6,4.39 l -619.8,619.78 c -5.9,5.9 -5.9,15.4 0,21.2 5.9,5.9 15.4,5.9 21.2,0 l 619.8,-619.77 c 5.9,-5.86 5.9,-15.36 0,-21.21 -2.9,-2.93 -6.8,-4.39 -10.6,-4.39" /><path
         id="path174"
         style="fill:#100f0d;fill-opacity:1;fill-rule:nonzero;stroke:none"
         d="m 14406.4,9884.63 c -3.8,0 -7.7,1.46 -10.6,4.39 -5.8,5.85 -5.8,15.35 0,21.21 l 619.8,619.77 c 5.9,5.9 15.4,5.9 21.2,0 5.9,-5.8 5.9,-15.3 0,-21.2 L 14417,9889.02 c -2.9,-2.93 -6.8,-4.39 -10.6,-4.39" /><path
         id="path176"
         style="fill:#100f0d;fill-opacity:1;fill-rule:nonzero;stroke:none"
         d="m 12856.9,9884.63 c -8.3,0 -15,6.7 -15,15 v 619.77 c 0,8.3 6.7,15 15,15 8.3,0 15,-6.7 15,-15 v -619.77 c 0,-8.3 -6.7,-15 -15,-15" /><path
         id="path178"
         style="fill:#100f0d;fill-opacity:1;fill-rule:nonzero;stroke:none"
         d="m 15336.1,9884.63 c -8.3,0 -15,6.7 -15,15 v 619.77 c 0,8.3 6.7,15 15,15 8.3,0 15,-6.7 15,-15 v -619.77 c 0,-8.3 -6.7,-15 -15,-15" /><path
         id="path180"
         style="fill:#100f0d;fill-opacity:1;fill-rule:nonzero;stroke:none"
         d="m 13786.6,8583.05 c -3.8,0 -7.7,1.46 -10.6,4.39 l -619.8,619.8 c -5.9,5.85 -5.9,15.35 0,21.21 5.9,5.85 15.4,5.85 21.2,0 l 619.8,-619.8 c 5.9,-5.85 5.9,-15.35 0,-21.21 -2.9,-2.93 -6.8,-4.39 -10.6,-4.39" /><path
         id="path182"
         style="fill:#100f0d;fill-opacity:1;fill-rule:nonzero;stroke:none"
         d="m 15026.2,8583.05 c -3.8,0 -7.7,1.46 -10.6,4.39 l -619.8,619.8 c -5.8,5.85 -5.8,15.35 0,21.21 5.9,5.85 15.4,5.85 21.2,0 l 619.8,-619.8 c 5.9,-5.85 5.9,-15.35 0,-21.21 -2.9,-2.93 -6.8,-4.39 -10.6,-4.39" /><path
         id="path184"
         style="fill:#100f0d;fill-opacity:1;fill-rule:nonzero;stroke:none"
         d="m 14096.5,8583.05 c -8.3,0 -15,6.71 -15,14.99 v 619.81 c 0,8.28 6.7,14.99 15,14.99 8.3,0 15,-6.71 15,-14.99 v -619.81 c 0,-8.28 -6.7,-14.99 -15,-14.99" /><path
         id="path186"
         style="fill:#100f0d;fill-opacity:1;fill-rule:nonzero;stroke:none"
         d="m 15336.1,8583.05 c -8.3,0 -15,6.71 -15,14.99 v 619.81 c 0,8.28 6.7,14.99 15,14.99 8.3,0 15,-6.71 15,-14.99 v -619.81 c 0,-8.28 -6.7,-14.99 -15,-14.99" /><path
         id="path188"
         style="fill:#100f0d;fill-opacity:1;fill-rule:nonzero;stroke:none"
         d="m 13786.6,9574.72 h -619.8 c -8.3,0 -15,6.72 -15,15 0,8.28 6.7,15 15,15 h 619.8 c 8.3,0 15,-6.72 15,-15 0,-8.28 -6.7,-15 -15,-15" /><path
         id="path190"
         style="fill:#100f0d;fill-opacity:1;fill-rule:nonzero;stroke:none"
         d="m 15026.2,8335.13 h -619.8 c -8.3,0 -15,6.71 -15,15 0,8.28 6.7,15 15,15 h 619.8 c 8.3,0 15,-6.72 15,-15 0,-8.29 -6.7,-15 -15,-15" /><path
         id="path192"
         style="fill:#100f0d;fill-opacity:1;fill-rule:nonzero;stroke:none"
         d="m 15336.1,10938.3 c -60.1,0 -109,-48.9 -109,-109 0,-60.1 48.9,-108.9 109,-108.9 60.1,0 109,48.8 109,108.9 0,60.1 -48.9,109 -109,109 z m 0,-247.9 c -76.6,0 -139,62.3 -139,138.9 0,76.6 62.4,139 139,139 76.6,0 139,-62.4 139,-139 0,-76.6 -62.4,-138.9 -139,-138.9" /><g
         transform="scale(1.10149)"
         id="g194"><path
           id="path196"
           style="fill:#100f0d;fill-opacity:1;fill-rule:nonzero;stroke:none"
           d="m 16173.8,9930.43 c -54.6,0 -98.9,-44.37 -98.9,-98.91 0,-54.56 44.3,-98.92 98.9,-98.92 54.6,0 99,44.36 99,98.92 0,54.54 -44.4,98.91 -99,98.91 z m 0,-225.07 c -69.5,0 -126.2,56.59 -126.2,126.16 0,69.55 56.7,126.15 126.2,126.15 69.5,0 126.2,-56.6 126.2,-126.15 0,-69.57 -56.7,-126.16 -126.2,-126.16" /></g><g
         transform="scale(1.17791)"
         id="g198"><path
           id="path200"
           style="fill:#e1e0de;fill-opacity:1;fill-rule:nonzero;stroke:none"
           d="m 16334.6,9193.64 c 0,-87.17 -70.6,-157.85 -157.8,-157.85 -87.2,0 -157.8,70.68 -157.8,157.85 0,87.19 70.6,157.86 157.8,157.86 87.2,0 157.8,-70.67 157.8,-157.86" /></g><g
         transform="scale(1.17791)"
         id="g202"><path
           id="path204"
           style="fill:#100f0d;fill-opacity:1;fill-rule:nonzero;stroke:none"
           d="m 16176.8,9338.76 c -80,0 -145.1,-65.09 -145.1,-145.11 0,-80.03 65.1,-145.13 145.1,-145.13 80.1,0 145.1,65.1 145.1,145.13 0,80.02 -65,145.11 -145.1,145.11 z m 0,-315.71 c -94,0 -170.5,76.54 -170.5,170.6 0,94.06 76.5,170.58 170.5,170.58 94.1,0 170.6,-76.52 170.6,-170.58 0,-94.06 -76.5,-170.6 -170.6,-170.6" /></g><path
         id="path206"
         style="fill:#100f0d;fill-opacity:1;fill-rule:nonzero;stroke:none"
         d="m 15336.1,9698.69 c -60.1,0 -109,-48.88 -109,-108.97 0,-60.08 48.9,-108.95 109,-108.95 60.1,0 109,48.87 109,108.95 0,60.09 -48.9,108.97 -109,108.97 z m 0,-247.92 c -76.6,0 -139,62.34 -139,138.95 0,76.62 62.4,138.97 139,138.97 76.6,0 139,-62.35 139,-138.97 0,-76.61 -62.4,-138.95 -139,-138.95" /><g
         transform="scale(1.02832)"
         id="g208"><path
           id="path210"
           style="fill:#e1e0de;fill-opacity:1;fill-rule:nonzero;stroke:none"
           d="m 16300,9325.63 c 0,-99.86 -80.9,-180.82 -180.8,-180.82 -99.9,0 -180.8,80.96 -180.8,180.82 0,99.87 80.9,180.83 180.8,180.83 99.9,0 180.8,-80.96 180.8,-180.83" /></g><g
         transform="scale(1.02924)"
         id="g212"><path
           id="path214"
           style="fill:#100f0d;fill-opacity:1;fill-rule:nonzero;stroke:none"
           d="m 16104.8,9483.38 c -91.6,0 -166,-74.51 -166,-166.09 0,-91.58 74.4,-166.08 166,-166.08 91.6,0 166.1,74.5 166.1,166.08 0,91.58 -74.5,166.09 -166.1,166.09 z m 0,-361.32 c -107.6,0 -195.2,87.59 -195.2,195.23 0,107.65 87.6,195.24 195.2,195.24 107.7,0 195.2,-87.59 195.2,-195.24 0,-107.64 -87.5,-195.23 -195.2,-195.23" /></g><g
         transform="scale(1.10149)"
         id="g216"><path
           id="path218"
           style="fill:#ed1c24;fill-opacity:1;fill-rule:nonzero;stroke:none"
           d="m 16173.8,8805.06 c -54.6,0 -98.9,-44.38 -98.9,-98.93 0,-54.55 44.3,-98.91 98.9,-98.91 54.6,0 99,44.36 99,98.91 0,54.55 -44.4,98.93 -99,98.93 z m 0,-225.08 c -69.5,0 -126.2,56.6 -126.2,126.15 0,69.56 56.7,126.16 126.2,126.16 69.5,0 126.2,-56.6 126.2,-126.16 0,-69.55 -56.7,-126.15 -126.2,-126.15" /></g><g
         transform="scale(1.17754)"
         id="g220"><path
           id="path222"
           style="fill:#100f0d;fill-opacity:1;fill-rule:nonzero;stroke:none"
           d="m 16182,8236.4 c -51.1,0 -92.6,-41.51 -92.6,-92.54 0,-51.02 41.5,-92.52 92.6,-92.52 51,0 92.5,41.5 92.5,92.52 0,51.03 -41.5,92.54 -92.5,92.54 z m 0,-210.54 c -65.1,0 -118.1,52.94 -118.1,118 0,65.07 53,118.02 118.1,118.02 65,0 118,-52.95 118,-118.02 0,-65.06 -53,-118 -118,-118" /></g><path
         id="path224"
         style="fill:#100f0d;fill-opacity:1;fill-rule:nonzero;stroke:none"
         d="m 15336.1,8459.09 c -60.1,0 -109,-48.88 -109,-108.96 0,-60.09 48.9,-108.96 109,-108.96 60.1,0 109,48.87 109,108.96 0,60.08 -48.9,108.96 -109,108.96 z m 0,-247.92 c -76.6,0 -139,62.33 -139,138.96 0,76.61 62.4,138.95 139,138.95 76.6,0 139,-62.34 139,-138.95 0,-76.63 -62.4,-138.96 -139,-138.96" /><g
         transform="scale(1.02544)"
         id="g226"><path
           id="path228"
           style="fill:#100f0d;fill-opacity:1;fill-rule:nonzero;stroke:none"
           d="m 16164.4,8249.22 c -58.6,0 -106.2,-47.67 -106.2,-106.26 0,-58.6 47.6,-106.26 106.2,-106.26 58.7,0 106.3,47.66 106.3,106.26 0,58.59 -47.6,106.26 -106.3,106.26 z m 0,-241.77 c -74.6,0 -135.5,60.78 -135.5,135.51 0,74.71 60.9,135.5 135.5,135.5 74.8,0 135.6,-60.79 135.6,-135.5 0,-74.73 -60.8,-135.51 -135.6,-135.51" /></g><g
         transform="scale(1.10437)"
         id="g230"><path
           id="path232"
           style="fill:#e1e0de;fill-opacity:1;fill-rule:nonzero;stroke:none"
           d="m 16300,7560.99 c 0,-92.97 -75.3,-168.36 -168.3,-168.36 -93,0 -168.4,75.39 -168.4,168.36 0,93 75.4,168.38 168.4,168.38 93,0 168.3,-75.38 168.3,-168.38" /></g><g
         transform="scale(1.10529)"
         id="g234"><path
           id="path236"
           style="fill:#100f0d;fill-opacity:1;fill-rule:nonzero;stroke:none"
           d="m 16118.1,7709.32 c -85.3,0 -154.6,-69.37 -154.6,-154.66 0,-85.27 69.3,-154.66 154.6,-154.66 85.4,0 154.8,69.39 154.8,154.66 0,85.29 -69.4,154.66 -154.8,154.66 z m 0,-336.46 c -100.2,0 -181.7,81.56 -181.7,181.8 0,100.24 81.5,181.8 181.7,181.8 100.3,0 181.9,-81.56 181.9,-181.8 0,-100.24 -81.6,-181.8 -181.9,-181.8" /></g><g
         transform="scale(1.17754)"
         id="g238"><path
           id="path240"
           style="fill:#100f0d;fill-opacity:1;fill-rule:nonzero;stroke:none"
           d="m 16182,7183.7 c -51.1,0 -92.6,-41.51 -92.6,-92.54 0,-51.03 41.5,-92.53 92.6,-92.53 51,0 92.5,41.5 92.5,92.53 0,51.03 -41.5,92.54 -92.5,92.54 z m 0,-210.54 c -65.1,0 -118.1,52.93 -118.1,118 0,65.07 53,118.01 118.1,118.01 65,0 118,-52.94 118,-118.01 0,-65.07 -53,-118 -118,-118" /></g><g
         transform="scale(1.15101)"
         id="g242"><path
           id="path244"
           style="fill:#100f0d;fill-opacity:1;fill-rule:nonzero;stroke:none"
           d="m 15747.2,8587.77 c -3.3,0 -6.7,1.27 -9.2,3.81 -5.2,5.09 -5.2,13.34 0,18.43 l 538.5,538.49 c 5.1,5.09 13.3,5.09 18.4,0 5.1,-5.09 5.1,-13.34 0,-18.43 l -538.5,-538.49 c -2.5,-2.54 -5.9,-3.81 -9.2,-3.81" /></g><path
         id="path246"
         style="fill:#100f0d;fill-opacity:1;fill-rule:nonzero;stroke:none"
         d="m 15646,8583.05 c -3.8,0 -7.7,1.46 -10.6,4.39 -5.9,5.86 -5.9,15.36 0,21.21 l 619.8,619.8 c 5.9,5.85 15.3,5.85 21.2,0 5.9,-5.86 5.9,-15.36 0,-21.21 l -619.8,-619.8 c -2.9,-2.93 -6.8,-4.39 -10.6,-4.39" /><g
         transform="scale(1.07496)"
         id="g248"><path
           id="path250"
           style="fill:#100f0d;fill-opacity:1;fill-rule:nonzero;stroke:none"
           d="m 16284.7,7984.51 c -3.6,0 -7.2,1.36 -9.9,4.08 l -576.6,576.58 c -5.5,5.44 -5.5,14.28 0,19.73 5.5,5.44 14.3,5.44 19.7,0 l 576.6,-576.58 c 5.5,-5.44 5.5,-14.28 0,-19.73 -2.7,-2.72 -6.3,-4.08 -9.8,-4.08" /></g><g
         transform="scale(1.15101)"
         id="g252"><path
           id="path254"
           style="fill:#100f0d;fill-opacity:1;fill-rule:nonzero;stroke:none"
           d="m 16285.7,7456.96 c -3.3,0 -6.7,1.27 -9.2,3.81 l -538.5,538.49 c -5.2,5.08 -5.2,13.33 0,18.42 5,5.08 13.4,5.08 18.4,0 l 538.5,-538.48 c 5.1,-5.08 5.1,-13.34 0,-18.43 -2.5,-2.54 -5.9,-3.81 -9.2,-3.81" /></g><g
         transform="scale(1.01783)"
         id="g256"><path
           id="path258"
           style="fill:#100f0d;fill-opacity:1;fill-rule:nonzero;stroke:none"
           d="m 16285.3,8432.66 c -8.2,0 -14.8,6.59 -14.8,14.73 v 608.95 c 0,8.13 6.6,14.72 14.8,14.72 8.1,0 14.7,-6.59 14.7,-14.72 v -608.95 c 0,-8.14 -6.6,-14.73 -14.7,-14.73" /></g><g
         transform="scale(1.09388)"
         id="g260"><path
           id="path262"
           style="fill:#100f0d;fill-opacity:1;fill-rule:nonzero;stroke:none"
           d="m 16286.3,7846.4 c -7.6,0 -13.7,6.14 -13.7,13.7 v 566.62 c 0,7.57 6.1,13.7 13.7,13.7 7.6,0 13.7,-6.13 13.7,-13.7 V 7860.1 c 0,-7.56 -6.1,-13.7 -13.7,-13.7" /></g><g
         transform="scale(1.16993)"
         id="g264"><path
           id="path266"
           style="fill:#100f0d;fill-opacity:1;fill-rule:nonzero;stroke:none"
           d="m 16287.2,7336.36 c -7.1,0 -12.8,5.74 -12.8,12.81 v 529.79 c 0,7.07 5.7,12.81 12.8,12.81 7.1,0 12.8,-5.74 12.8,-12.81 v -529.79 c 0,-7.07 -5.7,-12.81 -12.8,-12.81" /></g><g
         transform="scale(1.07487)"
         id="g268"><path
           id="path270"
           style="fill:#100f0d;fill-opacity:1;fill-rule:nonzero;stroke:none"
           d="m 16286,8907.78 h -576.6 c -7.7,0 -13.9,6.26 -13.9,13.96 0,7.7 6.2,13.95 13.9,13.95 h 576.6 c 7.8,0 14,-6.25 14,-13.95 0,-7.7 -6.2,-13.96 -14,-13.96" /></g><path
         id="path272"
         style="fill:#100f0d;fill-opacity:1;fill-rule:nonzero;stroke:none"
         d="M 16265.8,8335.13 H 15646 c -8.3,0 -15,6.71 -15,15 0,8.28 6.7,15 15,15 h 619.8 c 8.3,0 15,-6.72 15,-15 0,-8.29 -6.7,-15 -15,-15" /><g
         transform="scale(1.15092)"
         id="g274"><path
           id="path276"
           style="fill:#100f0d;fill-opacity:1;fill-rule:nonzero;stroke:none"
           d="m 16287,7242.14 h -538.6 c -7.2,0 -13,5.83 -13,13.04 0,7.19 5.8,13.03 13,13.03 h 538.6 c 7.2,0 13,-5.84 13,-13.03 0,-7.21 -5.8,-13.04 -13,-13.04" /></g><path
         id="path278"
         style="fill:#100f0d;fill-opacity:1;fill-rule:nonzero;stroke:none"
         d="m 13166.8,-32.1992 c -3.8,0 -7.7,1.5 -10.6,4.3984 -5.9,5.9024 -5.9,15.4024 0,21.19924 L 13776,613.199 c 5.9,5.903 15.3,5.903 21.2,0 5.9,-5.797 5.9,-15.301 0,-21.199 l -619.8,-619.8008 c -2.9,-2.8984 -6.8,-4.3984 -10.6,-4.3984" /><path
         id="path280"
         style="fill:#100f0d;fill-opacity:1;fill-rule:nonzero;stroke:none"
         d="m 15026.2,-32.1992 c -3.8,0 -7.7,1.5 -10.6,4.3984 L 14395.8,592 c -5.8,5.898 -5.8,15.402 0,21.199 5.9,5.903 15.4,5.903 21.2,0 l 619.8,-619.80056 c 5.9,-5.79684 5.9,-15.29684 0,-21.19924 -2.9,-2.8984 -6.8,-4.3984 -10.6,-4.3984" /><path
         id="path282"
         style="fill:#100f0d;fill-opacity:1;fill-rule:nonzero;stroke:none"
         d="m 14096.5,-32.1992 c -8.3,0 -15,6.6992 -15,15 V 602.602 c 0,8.3 6.7,15 15,15 8.3,0 15,-6.7 15,-15 V -17.1992 c 0,-8.3008 -6.7,-15 -15,-15" /><path
         id="path284"
         style="fill:#100f0d;fill-opacity:1;fill-rule:nonzero;stroke:none"
         d="m 16265.8,-32.1992 c -3.8,0 -7.7,1.5 -10.6,4.3984 L 15635.4,592 c -5.9,5.898 -5.9,15.402 0,21.199 5.9,5.903 15.4,5.903 21.2,0 l 619.8,-619.80056 c 5.9,-5.79684 5.9,-15.29684 0,-21.19924 -2.9,-2.8984 -6.8,-4.3984 -10.6,-4.3984" /><g
         transform="scale(1.07496)"
         id="g286"><path
           id="path288"
           style="fill:#100f0d;fill-opacity:1;fill-rule:nonzero;stroke:none"
           d="m 15708.1,-29.9538 c -3.6,0 -7.2,1.3954 -9.9,4.0917 -5.5,5.4908 -5.5,14.3283 0,19.7209 l 576.6,576.5782 c 5.5,5.491 14.3,5.491 19.7,0 5.5,-5.392 5.5,-14.233 0,-19.72 l -576.6,-576.5791 c -2.7,-2.6963 -6.3,-4.0917 -9.8,-4.0917" /></g><path
         id="path290"
         style="fill:#100f0d;fill-opacity:1;fill-rule:nonzero;stroke:none"
         d="m 12856.9,4740.28 c -60.1,0 -109,-48.87 -109,-108.95 0,-60.09 48.9,-108.97 109,-108.97 60.1,0 109,48.88 109,108.97 0,60.08 -48.9,108.95 -109,108.95 z m 0,-247.91 c -76.6,0 -139,62.34 -139,138.96 0,76.62 62.4,138.95 139,138.95 76.6,0 139,-62.33 139,-138.95 0,-76.62 -62.4,-138.96 -139,-138.96" /><path
         id="path292"
         style="fill:#100f0d;fill-opacity:1;fill-rule:nonzero;stroke:none"
         d="m 15336.1,4740.28 c -60.1,0 -109,-48.87 -109,-108.95 0,-60.09 48.9,-108.97 109,-108.97 60.1,0 109,48.88 109,108.97 0,60.08 -48.9,108.95 -109,108.95 z m 0,-247.91 c -76.6,0 -139,62.34 -139,138.96 0,76.62 62.4,138.95 139,138.95 76.6,0 139,-62.33 139,-138.95 0,-76.62 -62.4,-138.96 -139,-138.96" /><path
         id="path294"
         style="fill:#ed1c24;fill-opacity:1;fill-rule:nonzero;stroke:none"
         d="m 12856.9,3500.69 c -60.1,0 -109,-48.87 -109,-108.96 0,-60.09 48.9,-108.97 109,-108.97 60.1,0 109,48.88 109,108.97 0,60.09 -48.9,108.96 -109,108.96 z m 0,-247.93 c -76.6,0 -139,62.35 -139,138.97 0,76.62 62.4,138.96 139,138.96 76.6,0 139,-62.34 139,-138.96 0,-76.62 -62.4,-138.97 -139,-138.97" /><path
         id="path296"
         style="fill:#100f0d;fill-opacity:1;fill-rule:nonzero;stroke:none"
         d="m 15336.1,3500.69 c -60.1,0 -109,-48.87 -109,-108.96 0,-60.09 48.9,-108.97 109,-108.97 60.1,0 109,48.88 109,108.97 0,60.09 -48.9,108.96 -109,108.96 z m 0,-247.93 c -76.6,0 -139,62.35 -139,138.97 0,76.62 62.4,138.96 139,138.96 76.6,0 139,-62.34 139,-138.96 0,-76.62 -62.4,-138.97 -139,-138.97" /><path
         id="path298"
         style="fill:#e1e0de;fill-opacity:1;fill-rule:nonzero;stroke:none"
         d="m 13042.8,2152.13 c 0,-102.7 -83.2,-185.94 -185.9,-185.94 -102.7,0 -185.9,83.24 -185.9,185.94 0,102.69 83.2,185.94 185.9,185.94 102.7,0 185.9,-83.25 185.9,-185.94" /><path
         id="path300"
         style="fill:#100f0d;fill-opacity:1;fill-rule:nonzero;stroke:none"
         d="m 12856.9,2323.07 c -94.3,0 -170.9,-76.68 -170.9,-170.95 0,-94.26 76.6,-170.93 170.9,-170.93 94.3,0 170.9,76.67 170.9,170.93 0,94.27 -76.6,170.95 -170.9,170.95 z m 0,-371.88 c -110.8,0 -200.9,90.14 -200.9,200.93 0,110.8 90.1,200.95 200.9,200.95 110.8,0 200.9,-90.15 200.9,-200.95 0,-110.79 -90.1,-200.93 -200.9,-200.93" /><path
         id="path302"
         style="fill:#100f0d;fill-opacity:1;fill-rule:nonzero;stroke:none"
         d="m 14096.5,2261.08 c -60.1,0 -109,-48.86 -109,-108.96 0,-60.08 48.9,-108.95 109,-108.95 60.1,0 109,48.87 109,108.95 0,60.1 -48.9,108.96 -109,108.96 z m 0,-247.91 c -76.6,0 -139,62.34 -139,138.95 0,76.63 62.4,138.96 139,138.96 76.6,0 139,-62.33 139,-138.96 0,-76.61 -62.4,-138.95 -139,-138.95" /><path
         id="path304"
         style="fill:#100f0d;fill-opacity:1;fill-rule:nonzero;stroke:none"
         d="m 15336.1,2261.08 c -60.1,0 -109,-48.86 -109,-108.96 0,-60.08 48.9,-108.95 109,-108.95 60.1,0 109,48.87 109,108.95 0,60.1 -48.9,108.96 -109,108.96 z m 0,-247.91 c -76.6,0 -139,62.34 -139,138.95 0,76.63 62.4,138.96 139,138.96 76.6,0 139,-62.33 139,-138.96 0,-76.61 -62.4,-138.95 -139,-138.95" /><path
         id="path306"
         style="fill:#100f0d;fill-opacity:1;fill-rule:nonzero;stroke:none"
         d="m 12856.9,1021.49 c -60.1,0 -109,-48.869 -109,-108.959 0,-60.09 48.9,-108.968 109,-108.968 60.1,0 109,48.878 109,108.968 0,60.09 -48.9,108.959 -109,108.959 z m 0,-247.888 c -76.6,0 -139,62.308 -139,138.929 0,76.617 62.4,138.959 139,138.959 76.6,0 139,-62.342 139,-138.959 0,-76.621 -62.4,-138.929 -139,-138.929" /><path
         id="path308"
         style="fill:#ed1c24;fill-opacity:1;fill-rule:nonzero;stroke:none"
         d="m 14096.5,1021.49 c -60.1,0 -109,-48.869 -109,-108.959 0,-60.09 48.9,-108.968 109,-108.968 60.1,0 109,48.878 109,108.968 0,60.09 -48.9,108.959 -109,108.959 z m 0,-247.888 c -76.6,0 -139,62.308 -139,138.929 0,76.617 62.4,138.959 139,138.959 76.6,0 139,-62.342 139,-138.959 0,-76.621 -62.4,-138.929 -139,-138.929" /><path
         id="path310"
         style="fill:#100f0d;fill-opacity:1;fill-rule:nonzero;stroke:none"
         d="m 13786.6,2447.03 c -3.8,0 -7.7,1.47 -10.6,4.4 l -619.8,619.79 c -5.9,5.86 -5.9,15.36 0,21.21 5.9,5.86 15.4,5.86 21.2,0 l 619.8,-619.79 c 5.9,-5.86 5.9,-15.35 0,-21.21 -2.9,-2.93 -6.8,-4.4 -10.6,-4.4" /><path
         id="path312"
         style="fill:#100f0d;fill-opacity:1;fill-rule:nonzero;stroke:none"
         d="m 14406.4,2447.03 c -3.8,0 -7.7,1.47 -10.6,4.4 -5.8,5.86 -5.8,15.35 0,21.21 l 619.8,619.79 c 5.9,5.86 15.4,5.86 21.2,0 5.9,-5.85 5.9,-15.35 0,-21.21 L 14417,2451.43 c -2.9,-2.93 -6.8,-4.4 -10.6,-4.4" /><path
         id="path314"
         style="fill:#100f0d;fill-opacity:1;fill-rule:nonzero;stroke:none"
         d="m 15336.1,2447.03 c -8.3,0 -15,6.72 -15,15 v 619.8 c 0,8.29 6.7,15 15,15 8.3,0 15,-6.71 15,-15 v -619.8 c 0,-8.28 -6.7,-15 -15,-15" /><path
         id="path316"
         style="fill:#100f0d;fill-opacity:1;fill-rule:nonzero;stroke:none"
         d="m 13786.6,1145.45 c -3.8,0 -7.7,1.46 -10.6,4.39 l -619.8,619.8 c -5.9,5.86 -5.9,15.35 0,21.21 5.9,5.86 15.4,5.86 21.2,0 l 619.8,-619.8 c 5.9,-5.85 5.9,-15.35 0,-21.21 -2.9,-2.93 -6.8,-4.39 -10.6,-4.39" /><path
         id="path318"
         style="fill:#100f0d;fill-opacity:1;fill-rule:nonzero;stroke:none"
         d="m 15026.2,1145.45 c -3.8,0 -7.7,1.46 -10.6,4.39 l -619.8,619.8 c -5.8,5.86 -5.8,15.35 0,21.21 5.9,5.86 15.4,5.86 21.2,0 l 619.8,-619.8 c 5.9,-5.85 5.9,-15.35 0,-21.21 -2.9,-2.93 -6.8,-4.39 -10.6,-4.39" /><path
         id="path320"
         style="fill:#100f0d;fill-opacity:1;fill-rule:nonzero;stroke:none"
         d="m 12856.9,1145.45 c -8.3,0 -15,6.72 -15,15 v 619.79 c 0,8.29 6.7,15 15,15 8.3,0 15,-6.71 15,-15 v -619.79 c 0,-8.28 -6.7,-15 -15,-15" /><path
         id="path322"
         style="fill:#100f0d;fill-opacity:1;fill-rule:nonzero;stroke:none"
         d="m 14096.5,1145.45 c -8.3,0 -15,6.72 -15,15 v 619.79 c 0,8.29 6.7,15 15,15 8.3,0 15,-6.71 15,-15 v -619.79 c 0,-8.28 -6.7,-15 -15,-15" /><path
         id="path324"
         style="fill:#100f0d;fill-opacity:1;fill-rule:nonzero;stroke:none"
         d="m 15336.1,1145.45 c -8.3,0 -15,6.72 -15,15 v 619.79 c 0,8.29 6.7,15 15,15 8.3,0 15,-6.71 15,-15 v -619.79 c 0,-8.28 -6.7,-15 -15,-15" /><path
         id="path326"
         style="fill:#100f0d;fill-opacity:1;fill-rule:nonzero;stroke:none"
         d="m 13786.6,2137.13 h -619.8 c -8.3,0 -15,6.71 -15,14.99 0,8.29 6.7,15 15,15 h 619.8 c 8.3,0 15,-6.71 15,-15 0,-8.28 -6.7,-14.99 -15,-14.99" /><path
         id="path328"
         style="fill:#100f0d;fill-opacity:1;fill-rule:nonzero;stroke:none"
         d="m 15026.2,897.531 h -619.8 c -8.3,0 -15,6.719 -15,15 0,8.278 6.7,15 15,15 h 619.8 c 8.3,0 15,-6.722 15,-15 0,-8.281 -6.7,-15 -15,-15" /><path
         id="path330"
         style="fill:#ed1c24;fill-opacity:1;fill-rule:nonzero;stroke:none"
         d="m 15336.1,4740.28 c -60.1,0 -109,-48.87 -109,-108.95 0,-60.09 48.9,-108.97 109,-108.97 60.1,0 109,48.88 109,108.97 0,60.08 -48.9,108.95 -109,108.95 z m 0,-247.91 c -76.6,0 -139,62.34 -139,138.96 0,76.62 62.4,138.95 139,138.95 76.6,0 139,-62.33 139,-138.95 0,-76.62 -62.4,-138.96 -139,-138.96" /><g
         transform="scale(1.02832)"
         id="g332"><path
           id="path334"
           style="fill:#e1e0de;fill-opacity:1;fill-rule:nonzero;stroke:none"
           d="m 16300,4503.79 c 0,-99.88 -80.9,-180.82 -180.8,-180.82 -99.9,0 -180.8,80.94 -180.8,180.82 0,99.86 80.9,180.82 180.8,180.82 99.9,0 180.8,-80.96 180.8,-180.82" /></g><g
         transform="scale(1.02924)"
         id="g336"><path
           id="path338"
           style="fill:#100f0d;fill-opacity:1;fill-rule:nonzero;stroke:none"
           d="m 16104.8,4665.84 c -91.6,0 -166,-74.49 -166,-166.08 0,-91.58 74.4,-166.09 166,-166.09 91.6,0 166.1,74.51 166.1,166.09 0,91.59 -74.5,166.08 -166.1,166.08 z m 0,-361.31 c -107.6,0 -195.2,87.59 -195.2,195.23 0,107.65 87.6,195.23 195.2,195.23 107.7,0 195.2,-87.58 195.2,-195.23 0,-107.64 -87.5,-195.23 -195.2,-195.23" /></g><g
         transform="scale(1.10149)"
         id="g340"><path
           id="path342"
           style="fill:#100f0d;fill-opacity:1;fill-rule:nonzero;stroke:none"
           d="m 16173.8,4303.51 c -54.6,0 -98.9,-44.36 -98.9,-98.91 0,-54.55 44.3,-98.93 98.9,-98.93 54.6,0 99,44.38 99,98.93 0,54.55 -44.4,98.91 -99,98.91 z m 0,-225.06 c -69.5,0 -126.2,56.59 -126.2,126.15 0,69.56 56.7,126.15 126.2,126.15 69.5,0 126.2,-56.59 126.2,-126.15 0,-69.56 -56.7,-126.15 -126.2,-126.15" /></g><g
         transform="scale(1.17754)"
         id="g344"><path
           id="path346"
           style="fill:#ed1c24;fill-opacity:1;fill-rule:nonzero;stroke:none"
           d="m 16182,4025.58 c -51.1,0 -92.6,-41.5 -92.6,-92.52 0,-51.03 41.5,-92.55 92.6,-92.55 51,0 92.5,41.52 92.5,92.55 0,51.02 -41.5,92.52 -92.5,92.52 z m 0,-210.53 c -65.1,0 -118.1,52.94 -118.1,118.01 0,65.06 53,118 118.1,118 65,0 118,-52.94 118,-118 0,-65.07 -53,-118.01 -118,-118.01" /></g><path
         id="path348"
         style="fill:#100f0d;fill-opacity:1;fill-rule:nonzero;stroke:none"
         d="m 15336.1,3500.69 c -60.1,0 -109,-48.87 -109,-108.96 0,-60.09 48.9,-108.97 109,-108.97 60.1,0 109,48.88 109,108.97 0,60.09 -48.9,108.96 -109,108.96 z m 0,-247.93 c -76.6,0 -139,62.35 -139,138.97 0,76.62 62.4,138.96 139,138.96 76.6,0 139,-62.34 139,-138.96 0,-76.62 -62.4,-138.97 -139,-138.97" /><g
         transform="scale(1.02544)"
         id="g350"><path
           id="path352"
           style="fill:#100f0d;fill-opacity:1;fill-rule:nonzero;stroke:none"
           d="m 16164.4,3413.84 c -58.6,0 -106.2,-47.66 -106.2,-106.26 0,-58.6 47.6,-106.27 106.2,-106.27 58.7,0 106.3,47.67 106.3,106.27 0,58.6 -47.6,106.26 -106.3,106.26 z m 0,-241.78 c -74.6,0 -135.5,60.8 -135.5,135.52 0,74.72 60.9,135.51 135.5,135.51 74.8,0 135.6,-60.79 135.6,-135.51 0,-74.72 -60.8,-135.52 -135.6,-135.52" /></g><g
         transform="scale(1.10149)"
         id="g354"><path
           id="path356"
           style="fill:#100f0d;fill-opacity:1;fill-rule:nonzero;stroke:none"
           d="m 16173.8,3178.14 c -54.6,0 -98.9,-44.37 -98.9,-98.92 0,-54.56 44.3,-98.93 98.9,-98.93 54.6,0 99,44.37 99,98.93 0,54.55 -44.4,98.92 -99,98.92 z m 0,-225.09 c -69.5,0 -126.2,56.61 -126.2,126.17 0,69.56 56.7,126.16 126.2,126.16 69.5,0 126.2,-56.6 126.2,-126.16 0,-69.56 -56.7,-126.17 -126.2,-126.17" /></g><g
         transform="scale(1.17791)"
         id="g358"><path
           id="path360"
           style="fill:#e1e0de;fill-opacity:1;fill-rule:nonzero;stroke:none"
           d="m 16334.6,2879.44 c 0,-87.19 -70.6,-157.86 -157.8,-157.86 -87.2,0 -157.8,70.67 -157.8,157.86 0,87.18 70.6,157.85 157.8,157.85 87.2,0 157.8,-70.67 157.8,-157.85" /></g><g
         transform="scale(1.17791)"
         id="g362"><path
           id="path364"
           style="fill:#100f0d;fill-opacity:1;fill-rule:nonzero;stroke:none"
           d="m 16176.8,3024.57 c -80,0 -145.1,-65.11 -145.1,-145.13 0,-80.03 65.1,-145.12 145.1,-145.12 80.1,0 145.1,65.09 145.1,145.12 0,80.02 -65,145.13 -145.1,145.13 z m 0,-315.72 c -94,0 -170.5,76.53 -170.5,170.59 0,94.05 76.5,170.6 170.5,170.6 94.1,0 170.6,-76.55 170.6,-170.6 0,-94.06 -76.5,-170.59 -170.6,-170.59" /></g><path
         id="path366"
         style="fill:#100f0d;fill-opacity:1;fill-rule:nonzero;stroke:none"
         d="m 15336.1,2261.08 c -60.1,0 -109,-48.86 -109,-108.96 0,-60.08 48.9,-108.95 109,-108.95 60.1,0 109,48.87 109,108.95 0,60.1 -48.9,108.96 -109,108.96 z m 0,-247.91 c -76.6,0 -139,62.34 -139,138.95 0,76.63 62.4,138.96 139,138.96 76.6,0 139,-62.33 139,-138.96 0,-76.61 -62.4,-138.95 -139,-138.95" /><g
         transform="scale(1.02832)"
         id="g368"><path
           id="path370"
           style="fill:#e1e0de;fill-opacity:1;fill-rule:nonzero;stroke:none"
           d="m 16300,2092.86 c 0,-99.87 -80.9,-180.82 -180.8,-180.82 -99.9,0 -180.8,80.95 -180.8,180.82 0,99.86 80.9,180.82 180.8,180.82 99.9,0 180.8,-80.96 180.8,-180.82" /></g><g
         transform="scale(1.02924)"
         id="g372"><path
           id="path374"
           style="fill:#100f0d;fill-opacity:1;fill-rule:nonzero;stroke:none"
           d="m 16104.8,2257.07 c -91.6,0 -166,-74.5 -166,-166.09 0,-91.58 74.4,-166.07 166,-166.07 91.6,0 166.1,74.49 166.1,166.07 0,91.59 -74.5,166.09 -166.1,166.09 z m 0,-361.31 c -107.6,0 -195.2,87.58 -195.2,195.22 0,107.66 87.6,195.24 195.2,195.24 107.7,0 195.2,-87.58 195.2,-195.24 0,-107.64 -87.5,-195.22 -195.2,-195.22" /></g><g
         transform="scale(1.10149)"
         id="g376"><path
           id="path378"
           style="fill:#ed1c24;fill-opacity:1;fill-rule:nonzero;stroke:none"
           d="m 16173.8,2052.75 c -54.6,0 -98.9,-44.36 -98.9,-98.92 0,-54.55 44.3,-98.92 98.9,-98.92 54.6,0 99,44.37 99,98.92 0,54.56 -44.4,98.92 -99,98.92 z m 0,-225.07 c -69.5,0 -126.2,56.6 -126.2,126.15 0,69.56 56.7,126.15 126.2,126.15 69.5,0 126.2,-56.59 126.2,-126.15 0,-69.55 -56.7,-126.15 -126.2,-126.15" /></g><g
         transform="scale(1.17754)"
         id="g380"><path
           id="path382"
           style="fill:#100f0d;fill-opacity:1;fill-rule:nonzero;stroke:none"
           d="m 16182,1920.17 c -51.1,0 -92.6,-41.49 -92.6,-92.53 0,-51.02 41.5,-92.52 92.6,-92.52 51,0 92.5,41.5 92.5,92.52 0,51.04 -41.5,92.53 -92.5,92.53 z m 0,-210.53 c -65.1,0 -118.1,52.94 -118.1,118 0,65.08 53,118.01 118.1,118.01 65,0 118,-52.93 118,-118.01 0,-65.06 -53,-118 -118,-118" /></g><path
         id="path384"
         style="fill:#100f0d;fill-opacity:1;fill-rule:nonzero;stroke:none"
         d="m 15336.1,1021.49 c -60.1,0 -109,-48.869 -109,-108.959 0,-60.09 48.9,-108.968 109,-108.968 60.1,0 109,48.878 109,108.968 0,60.09 -48.9,108.959 -109,108.959 z m 0,-247.888 c -76.6,0 -139,62.308 -139,138.929 0,76.617 62.4,138.959 139,138.959 76.6,0 139,-62.342 139,-138.959 0,-76.621 -62.4,-138.929 -139,-138.929" /><g
         transform="scale(1.02544)"
         id="g386"><path
           id="path388"
           style="fill:#100f0d;fill-opacity:1;fill-rule:nonzero;stroke:none"
           d="m 16164.4,996.149 c -58.6,0 -106.2,-47.659 -106.2,-106.258 0,-58.599 47.6,-106.265 106.2,-106.265 58.7,0 106.3,47.666 106.3,106.265 0,58.599 -47.6,106.258 -106.3,106.258 z m 0,-241.741 c -74.6,0 -135.5,60.763 -135.5,135.483 0,74.716 60.9,135.509 135.5,135.509 74.8,0 135.6,-60.793 135.6,-135.509 0,-74.72 -60.8,-135.483 -135.6,-135.483" /></g><g
         transform="scale(1.10437)"
         id="g390"><path
           id="path392"
           style="fill:#e1e0de;fill-opacity:1;fill-rule:nonzero;stroke:none"
           d="m 16300,826.293 c 0,-92.994 -75.3,-168.359 -168.3,-168.359 -93,0 -168.4,75.365 -168.4,168.359 0,92.983 75.4,168.365 168.4,168.365 93,0 168.3,-75.382 168.3,-168.365" /></g><g
         transform="scale(1.10529)"
         id="g394"><path
           id="path396"
           style="fill:#100f0d;fill-opacity:1;fill-rule:nonzero;stroke:none"
           d="m 16118.1,980.253 c -85.3,0 -154.6,-69.375 -154.6,-154.653 0,-85.282 69.3,-154.646 154.6,-154.646 85.4,0 154.8,69.364 154.8,154.646 0,85.278 -69.4,154.653 -154.8,154.653 z m 0,-336.441 c -100.2,0 -181.7,81.553 -181.7,181.788 0,100.246 81.5,181.8 181.7,181.8 100.3,0 181.9,-81.554 181.9,-181.8 0,-100.235 -81.6,-181.788 -181.9,-181.788" /></g><g
         transform="scale(1.17754)"
         id="g398"><path
           id="path400"
           style="fill:#100f0d;fill-opacity:1;fill-rule:nonzero;stroke:none"
           d="m 16182,867.48 c -51.1,0 -92.6,-41.503 -92.6,-92.533 0,-51.03 41.5,-92.539 92.6,-92.539 51,0 92.5,41.509 92.5,92.539 0,51.03 -41.5,92.533 -92.5,92.533 z m 0,-210.516 c -65.1,0 -118.1,52.914 -118.1,117.983 0,65.066 53,118.01 118.1,118.01 65,0 118,-52.944 118,-118.01 0,-65.069 -53,-117.983 -118,-117.983" /></g><path
         id="path402"
         style="fill:#100f0d;fill-opacity:1;fill-rule:nonzero;stroke:none"
         d="M 16265.8,4616.34 H 15646 c -8.3,0 -15,6.71 -15,14.99 0,8.29 6.7,15 15,15 h 619.8 c 8.3,0 15,-6.71 15,-15 0,-8.28 -6.7,-14.99 -15,-14.99" /><path
         id="path404"
         style="fill:#100f0d;fill-opacity:1;fill-rule:nonzero;stroke:none"
         d="m 16265.8,3686.63 c -3.8,0 -7.7,1.47 -10.6,4.4 l -619.8,619.8 c -5.9,5.86 -5.9,15.35 0,21.21 5.9,5.86 15.4,5.86 21.2,0 l 619.8,-619.8 c 5.9,-5.86 5.9,-15.37 0,-21.21 -2.9,-2.93 -6.8,-4.4 -10.6,-4.4" /><g
         transform="scale(1.07496)"
         id="g406"><path
           id="path408"
           style="fill:#100f0d;fill-opacity:1;fill-rule:nonzero;stroke:none"
           d="m 15708.1,3429.54 c -3.6,0 -7.2,1.37 -9.9,4.1 -5.5,5.43 -5.5,14.27 0,19.73 l 576.6,576.57 c 5.5,5.45 14.3,5.45 19.7,0 5.5,-5.45 5.5,-14.28 0,-19.73 l -576.6,-576.57 c -2.7,-2.73 -6.3,-4.1 -9.8,-4.1" /></g><g
         transform="scale(1.15101)"
         id="g410"><path
           id="path412"
           style="fill:#100f0d;fill-opacity:1;fill-rule:nonzero;stroke:none"
           d="m 16285.7,3202.94 c -3.3,0 -6.7,1.28 -9.2,3.83 l -538.5,538.48 c -5.2,5.09 -5.2,13.34 0,18.43 5,5.09 13.4,5.09 18.4,0 l 538.5,-538.48 c 5.1,-5.1 5.1,-13.36 0,-18.43 -2.5,-2.55 -5.9,-3.83 -9.2,-3.83" /></g><g
         transform="scale(1.09388)"
         id="g414"><path
           id="path416"
           style="fill:#100f0d;fill-opacity:1;fill-rule:nonzero;stroke:none"
           d="m 16286.3,3370.22 c -7.6,0 -13.7,6.14 -13.7,13.71 v 566.62 c 0,7.57 6.1,13.71 13.7,13.71 7.6,0 13.7,-6.14 13.7,-13.71 v -566.62 c 0,-7.57 -6.1,-13.71 -13.7,-13.71" /></g><path
         id="path418"
         style="fill:#100f0d;fill-opacity:1;fill-rule:nonzero;stroke:none"
         d="m 16265.8,2447.03 c -3.8,0 -7.7,1.47 -10.6,4.4 l -619.8,619.79 c -5.9,5.86 -5.9,15.36 0,21.21 5.9,5.86 15.4,5.86 21.2,0 l 619.8,-619.79 c 5.9,-5.86 5.9,-15.35 0,-21.21 -2.9,-2.93 -6.8,-4.4 -10.6,-4.4" /><g
         transform="scale(1.07496)"
         id="g420"><path
           id="path422"
           style="fill:#100f0d;fill-opacity:1;fill-rule:nonzero;stroke:none"
           d="m 16284.7,2276.39 c -3.6,0 -7.2,1.36 -9.9,4.09 l -576.6,576.57 c -5.5,5.45 -5.5,14.29 0,19.73 5.5,5.45 14.3,5.45 19.7,0 l 576.6,-576.57 c 5.5,-5.45 5.5,-14.28 0,-19.73 -2.7,-2.73 -6.3,-4.09 -9.8,-4.09" /></g><g
         transform="scale(1.15101)"
         id="g424"><path
           id="path426"
           style="fill:#100f0d;fill-opacity:1;fill-rule:nonzero;stroke:none"
           d="m 15747.2,2125.98 c -3.3,0 -6.7,1.28 -9.2,3.82 -5.2,5.09 -5.2,13.34 0,18.43 l 538.5,538.47 c 5.1,5.09 13.3,5.09 18.4,0 5.1,-5.08 5.1,-13.33 0,-18.42 l -538.5,-538.48 c -2.5,-2.54 -5.9,-3.82 -9.2,-3.82" /></g><g
         transform="scale(1.01783)"
         id="g428"><path
           id="path430"
           style="fill:#100f0d;fill-opacity:1;fill-rule:nonzero;stroke:none"
           d="m 16285.3,2404.15 c -8.2,0 -14.8,6.61 -14.8,14.74 v 608.94 c 0,8.15 6.6,14.74 14.8,14.74 8.1,0 14.7,-6.59 14.7,-14.74 v -608.94 c 0,-8.13 -6.6,-14.74 -14.7,-14.74" /></g><path
         id="path432"
         style="fill:#100f0d;fill-opacity:1;fill-rule:nonzero;stroke:none"
         d="m 15646,1145.45 c -3.8,0 -7.7,1.46 -10.6,4.39 -5.9,5.86 -5.9,15.36 0,21.21 l 619.8,619.8 c 5.9,5.86 15.3,5.86 21.2,0 5.9,-5.86 5.9,-15.35 0,-21.21 l -619.8,-619.8 c -2.9,-2.93 -6.8,-4.39 -10.6,-4.39" /><g
         transform="scale(1.07496)"
         id="g434"><path
           id="path436"
           style="fill:#100f0d;fill-opacity:1;fill-rule:nonzero;stroke:none"
           d="m 16284.7,1065.57 c -3.6,0 -7.2,1.36 -9.9,4.09 l -576.6,576.57 c -5.5,5.45 -5.5,14.28 0,19.74 5.5,5.45 14.3,5.45 19.7,0 l 576.6,-576.58 c 5.5,-5.45 5.5,-14.28 0,-19.73 -2.7,-2.73 -6.3,-4.09 -9.8,-4.09" /></g><g
         transform="scale(1.15101)"
         id="g438"><path
           id="path440"
           style="fill:#100f0d;fill-opacity:1;fill-rule:nonzero;stroke:none"
           d="m 16285.7,995.167 c -3.3,0 -6.7,1.269 -9.2,3.814 L 15738,1537.46 c -5.2,5.1 -5.2,13.34 0,18.43 5,5.09 13.4,5.09 18.4,0 l 538.5,-538.48 c 5.1,-5.08 5.1,-13.34 0,-18.429 -2.5,-2.545 -5.9,-3.814 -9.2,-3.814" /></g><g
         transform="scale(1.01783)"
         id="g442"><path
           id="path444"
           style="fill:#100f0d;fill-opacity:1;fill-rule:nonzero;stroke:none"
           d="m 16285.3,1125.38 c -8.2,0 -14.8,6.6 -14.8,14.74 v 608.93 c 0,8.14 6.6,14.74 14.8,14.74 8.1,0 14.7,-6.6 14.7,-14.74 v -608.93 c 0,-8.14 -6.6,-14.74 -14.7,-14.74" /></g><g
         transform="scale(1.09388)"
         id="g446"><path
           id="path448"
           style="fill:#100f0d;fill-opacity:1;fill-rule:nonzero;stroke:none"
           d="m 16286.3,1047.14 c -7.6,0 -13.7,6.15 -13.7,13.71 v 566.6 c 0,7.58 6.1,13.71 13.7,13.71 7.6,0 13.7,-6.13 13.7,-13.71 v -566.6 c 0,-7.56 -6.1,-13.71 -13.7,-13.71" /></g><g
         transform="scale(1.16993)"
         id="g450"><path
           id="path452"
           style="fill:#100f0d;fill-opacity:1;fill-rule:nonzero;stroke:none"
           d="m 16287.2,979.073 c -7.1,0 -12.8,5.746 -12.8,12.821 v 529.766 c 0,7.09 5.7,12.82 12.8,12.82 7.1,0 12.8,-5.73 12.8,-12.82 V 991.894 c 0,-7.075 -5.7,-12.821 -12.8,-12.821" /></g><g
         transform="scale(1.15092)"
         id="g454"><path
           id="path456"
           style="fill:#100f0d;fill-opacity:1;fill-rule:nonzero;stroke:none"
           d="m 16287,4011 h -538.6 c -7.2,0 -13,5.83 -13,13.03 0,7.2 5.8,13.03 13,13.03 h 538.6 c 7.2,0 13,-5.83 13,-13.03 0,-7.2 -5.8,-13.03 -13,-13.03" /></g><path
         id="path458"
         style="fill:#100f0d;fill-opacity:1;fill-rule:nonzero;stroke:none"
         d="M 16265.8,3376.73 H 15646 c -8.3,0 -15,6.72 -15,15 0,8.28 6.7,15 15,15 h 619.8 c 8.3,0 15,-6.72 15,-15 0,-8.28 -6.7,-15 -15,-15" /><g
         transform="scale(1.15092)"
         id="g460"><path
           id="path462"
           style="fill:#100f0d;fill-opacity:1;fill-rule:nonzero;stroke:none"
           d="m 16287,2933.94 h -538.6 c -7.2,0 -13,5.84 -13,13.03 0,7.2 5.8,13.04 13,13.04 h 538.6 c 7.2,0 13,-5.84 13,-13.04 0,-7.19 -5.8,-13.03 -13,-13.03" /></g><g
         transform="scale(1.07487)"
         id="g464"><path
           id="path466"
           style="fill:#100f0d;fill-opacity:1;fill-rule:nonzero;stroke:none"
           d="m 16286,1988.26 h -576.6 c -7.7,0 -13.9,6.25 -13.9,13.95 0,7.71 6.2,13.96 13.9,13.96 h 576.6 c 7.8,0 14,-6.25 14,-13.96 0,-7.7 -6.2,-13.95 -14,-13.95" /></g><path
         id="path468"
         style="fill:#100f0d;fill-opacity:1;fill-rule:nonzero;stroke:none"
         d="M 16265.8,897.531 H 15646 c -8.3,0 -15,6.719 -15,15 0,8.278 6.7,15 15,15 h 619.8 c 8.3,0 15,-6.722 15,-15 0,-8.281 -6.7,-15 -15,-15" /><g
         transform="scale(1.15092)"
         id="g470"><path
           id="path472"
           style="fill:#100f0d;fill-opacity:1;fill-rule:nonzero;stroke:none"
           d="m 16287,779.838 h -538.6 c -7.2,0 -13,5.838 -13,13.033 0,7.192 5.8,13.033 13,13.033 h 538.6 c 7.2,0 13,-5.841 13,-13.033 0,-7.195 -5.8,-13.033 -13,-13.033" /></g></g></g></svg>