<svg xmlns="http://www.w3.org/2000/svg" xmlns:xlink="http://www.w3.org/1999/xlink" width="1600" height="500" viewBox="0 0 1600 500">
  <defs>
    <clipPath id="clip-path">
      <rect id="Rectangle_1635" data-name="Rectangle 1635" width="1600" height="500" fill="none"/>
    </clipPath>
  </defs>
  <g id="Hero" transform="translate(0 -94)">
    <g id="BG" transform="translate(493.333 88)">
      <g id="Group_1900" data-name="Group 1900" transform="translate(-240.333 -79)">
        <g id="Group_1899" data-name="Group 1899" transform="translate(-253 85)" clip-path="url(#clip-path)">
          <rect id="Rectangle_1634" data-name="Rectangle 1634" width="1600" height="545.556" fill="none"/>
          <g id="Group_1889" data-name="Group 1889" transform="translate(1026.34 33.212)">
            <g id="Group_1888" data-name="Group 1888" transform="translate(16.221 11.235)">
              <g id="Group_1887" data-name="Group 1887">
                <path id="Path_1743" data-name="Path 1743" d="M1249.076,503.924l101.833,76.521-68.176-151.152Zm-78.617,149.124a17.249,17.249,0,0,1-7.195-1.563,17.526,17.526,0,0,1-8.784-23.186l112.261-248.86c5.674-12.608,26.312-12.608,31.985,0L1410.986,628.3a17.544,17.544,0,0,1-26.531,21.24L1234.291,536.7l-47.827,106.012A17.546,17.546,0,0,1,1170.459,653.048Z" transform="translate(-728.882 -141.797)" fill="#dedede" stroke="#e00" stroke-miterlimit="10" stroke-width="1"/>
                <path id="Path_1744" data-name="Path 1744" d="M1217.741,487.061l101.832,76.522L1251.4,412.432Zm-78.618,149.125a17.361,17.361,0,0,1-7.195-1.562,17.545,17.545,0,0,1-8.784-23.187l112.262-248.859c5.673-12.608,26.31-12.608,31.984,0L1379.65,611.436a17.544,17.544,0,0,1-26.531,21.241L1202.955,519.841l-47.826,106.011A17.548,17.548,0,0,1,1139.123,636.186Z" transform="translate(-725.816 -140.147)" fill="#dfcfcf" stroke="#e00" stroke-miterlimit="10" stroke-width="1"/>
                <path id="Path_1745" data-name="Path 1745" d="M1186.405,470.2l101.833,76.522-68.176-151.153Zm-78.618,149.124a17.561,17.561,0,0,1-15.978-24.749l112.261-248.86c5.674-12.608,26.312-12.608,31.984,0l112.262,248.86a17.544,17.544,0,0,1-26.531,21.241L1171.619,502.978l-47.826,106.012A17.547,17.547,0,0,1,1107.787,619.323Z" transform="translate(-722.75 -138.497)" fill="#e0c0c0" stroke="#e00" stroke-miterlimit="10" stroke-width="1"/>
                <path id="Path_1746" data-name="Path 1746" d="M1155.069,453.337,1256.9,529.858l-68.176-151.152Zm-78.618,149.124a17.354,17.354,0,0,1-7.194-1.562,17.542,17.542,0,0,1-8.785-23.186l112.261-248.86c5.673-12.608,26.311-12.608,31.985,0l112.261,248.86a17.544,17.544,0,0,1-26.531,21.24L1140.283,486.116l-47.826,106.012A17.546,17.546,0,0,1,1076.451,602.461Z" transform="translate(-719.684 -136.847)" fill="#e1b2b2" stroke="#e00" stroke-miterlimit="10" stroke-width="1"/>
                <path id="Path_1747" data-name="Path 1747" d="M1123.734,436.474,1225.566,513,1157.39,361.845ZM1045.116,585.6a17.358,17.358,0,0,1-7.195-1.562,17.543,17.543,0,0,1-8.784-23.187L1141.4,311.99c5.674-12.607,26.311-12.607,31.985,0l112.261,248.86a17.544,17.544,0,0,1-26.53,21.241L1108.948,469.254l-47.826,106.011A17.548,17.548,0,0,1,1045.116,585.6Z" transform="translate(-716.618 -135.197)" fill="#e2a3a3" stroke="#e00" stroke-miterlimit="10" stroke-width="1"/>
                <path id="Path_1748" data-name="Path 1748" d="M1092.4,419.612l101.833,76.522-68.177-151.153ZM1013.78,568.736a17.363,17.363,0,0,1-7.195-1.563,17.543,17.543,0,0,1-8.784-23.186l112.261-248.86c5.673-12.608,26.311-12.608,31.984,0l112.261,248.86a17.543,17.543,0,0,1-26.53,21.24L1077.612,452.391,1029.786,558.4A17.547,17.547,0,0,1,1013.78,568.736Z" transform="translate(-713.552 -133.547)" fill="#e39494" stroke="#e00" stroke-miterlimit="10" stroke-width="1"/>
                <path id="Path_1749" data-name="Path 1749" d="M1061.062,402.75,1162.9,479.271,1094.719,328.12ZM982.444,551.874a17.362,17.362,0,0,1-7.195-1.562,17.543,17.543,0,0,1-8.783-23.186l112.26-248.86c5.674-12.608,26.311-12.608,31.984,0l112.262,248.86a17.544,17.544,0,0,1-26.531,21.24L1046.276,435.529,998.45,541.541A17.548,17.548,0,0,1,982.444,551.874Z" transform="translate(-710.486 -131.897)" fill="#e48585" stroke="#e00" stroke-miterlimit="10" stroke-width="1"/>
                <path id="Path_1750" data-name="Path 1750" d="M1029.726,385.887l101.833,76.522-68.176-151.153ZM951.108,535.011a17.369,17.369,0,0,1-7.194-1.562,17.544,17.544,0,0,1-8.784-23.187L1047.391,261.4c5.674-12.607,26.312-12.607,31.985,0l112.261,248.86a17.544,17.544,0,0,1-26.531,21.241L1014.94,418.666,967.114,524.679A17.546,17.546,0,0,1,951.108,535.011Z" transform="translate(-707.42 -130.248)" fill="#e57676" stroke="#e00" stroke-miterlimit="10" stroke-width="1"/>
                <path id="Path_1751" data-name="Path 1751" d="M998.391,369.025l101.832,76.521-68.176-151.152ZM919.773,518.149a17.36,17.36,0,0,1-7.195-1.562,17.543,17.543,0,0,1-8.784-23.186l112.261-248.86c5.674-12.608,26.311-12.608,31.985,0L1160.3,493.4a17.544,17.544,0,0,1-26.531,21.24L983.605,401.8,935.779,507.817A17.548,17.548,0,0,1,919.773,518.149Z" transform="translate(-704.354 -128.598)" fill="#e76868" stroke="#e00" stroke-miterlimit="10" stroke-width="1"/>
                <path id="Path_1752" data-name="Path 1752" d="M967.055,352.162l101.833,76.522-68.177-151.152ZM888.437,501.287a17.363,17.363,0,0,1-7.195-1.562,17.543,17.543,0,0,1-8.783-23.187L984.72,227.678c5.673-12.608,26.311-12.608,31.984,0l112.261,248.859a17.544,17.544,0,0,1-26.53,21.241L952.269,384.942,904.443,490.954A17.548,17.548,0,0,1,888.437,501.287Z" transform="translate(-701.288 -126.948)" fill="#e85959" stroke="#e00" stroke-miterlimit="10" stroke-width="1"/>
                <path id="Path_1753" data-name="Path 1753" d="M935.719,335.3l101.833,76.522L969.376,260.67ZM857.1,484.424a17.369,17.369,0,0,1-7.194-1.562,17.544,17.544,0,0,1-8.784-23.187l112.261-248.86c5.674-12.608,26.311-12.608,31.984,0l112.261,248.86a17.544,17.544,0,0,1-26.531,21.241L920.933,368.079,873.107,474.092A17.546,17.546,0,0,1,857.1,484.424Z" transform="translate(-698.222 -125.298)" fill="#e94a4a" stroke="#e00" stroke-miterlimit="10" stroke-width="1"/>
                <path id="Path_1754" data-name="Path 1754" d="M904.383,318.438l101.833,76.521L938.04,243.808ZM825.766,467.562A17.356,17.356,0,0,1,818.571,466a17.543,17.543,0,0,1-8.784-23.186l112.261-248.86c5.674-12.608,26.311-12.608,31.985,0l112.261,248.86a17.544,17.544,0,0,1-26.531,21.24L889.6,351.217,841.771,457.23A17.546,17.546,0,0,1,825.766,467.562Z" transform="translate(-695.156 -123.648)" fill="#ea3b3b" stroke="#e00" stroke-miterlimit="10" stroke-width="1"/>
                <path id="Path_1755" data-name="Path 1755" d="M873.048,301.575,974.88,378.1,906.7,226.946ZM794.43,450.7a17.359,17.359,0,0,1-7.195-1.562,17.544,17.544,0,0,1-8.784-23.187l112.262-248.86c5.673-12.607,26.31-12.607,31.984,0l112.261,248.86a17.544,17.544,0,0,1-26.531,21.241L858.262,334.355,810.436,440.367A17.547,17.547,0,0,1,794.43,450.7Z" transform="translate(-692.09 -121.998)" fill="#eb2c2c" stroke="#e00" stroke-miterlimit="10" stroke-width="1"/>
                <path id="Path_1756" data-name="Path 1756" d="M841.713,284.713l101.833,76.522L875.369,210.083ZM763.094,433.837a17.362,17.362,0,0,1-7.195-1.563,17.542,17.542,0,0,1-8.783-23.186l112.261-248.86c5.673-12.608,26.312-12.608,31.984,0l112.261,248.86a17.543,17.543,0,0,1-26.53,21.24L826.926,317.492,779.1,423.5A17.547,17.547,0,0,1,763.094,433.837Z" transform="translate(-689.024 -120.348)" fill="#ec1e1e" stroke="#e00" stroke-miterlimit="10" stroke-width="1"/>
                <path id="Path_1757" data-name="Path 1757" d="M810.376,267.85l101.833,76.522L844.033,193.221ZM731.758,416.975a17.356,17.356,0,0,1-7.194-1.563,17.543,17.543,0,0,1-8.784-23.186l112.261-248.86c5.674-12.608,26.311-12.608,31.984,0l112.262,248.86a17.544,17.544,0,0,1-26.531,21.24L795.59,300.63,747.764,406.642A17.546,17.546,0,0,1,731.758,416.975Z" transform="translate(-685.958 -118.698)" fill="#ed0f0f" stroke="#e00" stroke-miterlimit="10" stroke-width="1"/>
                <path id="Path_1758" data-name="Path 1758" d="M779.04,250.988,880.873,327.51,812.7,176.358ZM700.423,400.112a17.261,17.261,0,0,1-7.195-1.562,17.527,17.527,0,0,1-8.784-23.187L796.7,126.5c5.674-12.607,26.311-12.607,31.985,0L940.95,375.363A17.544,17.544,0,0,1,914.42,396.6L764.255,283.767,716.429,389.78A17.548,17.548,0,0,1,700.423,400.112Z" transform="translate(-682.892 -117.049)" fill="#e00" stroke="#e00" stroke-miterlimit="10" stroke-width="1"/>
              </g>
            </g>
            <path id="Path_1759" data-name="Path 1759" d="M761.061,238.534l101.833,76.522L794.717,163.9ZM682.443,387.658a17.254,17.254,0,0,1-7.195-1.562,17.527,17.527,0,0,1-8.784-23.187L778.725,114.05c5.673-12.607,26.311-12.607,31.984,0L922.97,362.909a17.544,17.544,0,0,1-26.53,21.241L746.275,271.314,698.449,377.326A17.547,17.547,0,0,1,682.443,387.658Z" transform="translate(-664.912 -104.595)" fill="#fff"/>
          </g>
          <g id="Group_1895" data-name="Group 1895" transform="translate(1314.017 68.654)">
            <g id="Group_1894" data-name="Group 1894" transform="translate(8.45 3.593)">
              <g id="Group_1893" data-name="Group 1893">
                <path id="Path_1777" data-name="Path 1777" d="M1314.178,367.22l57.738,43.387-38.656-85.7ZM1269.6,451.772a9.782,9.782,0,0,1-4.08-.886,9.937,9.937,0,0,1-4.98-13.147l63.651-141.1c3.217-7.148,14.918-7.148,18.135,0l63.651,141.1a9.947,9.947,0,0,1-15.043,12.044l-85.142-63.977-27.117,60.108A9.951,9.951,0,0,1,1269.6,451.772Z" transform="translate(-1019.231 -161.896)" fill="#fff" stroke="#dedede" stroke-miterlimit="10" stroke-width="2.463"/>
                <path id="Path_1778" data-name="Path 1778" d="M1296.411,357.659l57.739,43.386-38.656-85.7Zm-44.575,84.552a9.842,9.842,0,0,1-4.079-.886,9.946,9.946,0,0,1-4.98-13.146l63.651-141.1c3.217-7.149,14.918-7.149,18.135,0l63.651,141.1a9.947,9.947,0,0,1-15.043,12.043l-85.143-63.977-27.117,60.108A9.949,9.949,0,0,1,1251.835,442.211Z" transform="translate(-1017.493 -160.961)" fill="#f7f7f7" stroke="#d8d8d8" stroke-miterlimit="10" stroke-width="2.366"/>
                <path id="Path_1779" data-name="Path 1779" d="M1278.644,348.1l57.739,43.387-38.656-85.7Zm-44.575,84.552a9.844,9.844,0,0,1-4.079-.886,9.947,9.947,0,0,1-4.981-13.146l63.652-141.1c3.217-7.149,14.918-7.149,18.135,0l63.651,141.1a9.947,9.947,0,0,1-15.043,12.043l-85.143-63.977-27.117,60.108A9.948,9.948,0,0,1,1234.068,432.65Z" transform="translate(-1015.755 -160.025)" fill="#f0f0f0" stroke="#d3d3d3" stroke-miterlimit="10" stroke-width="2.268"/>
                <path id="Path_1780" data-name="Path 1780" d="M1260.877,338.537l57.738,43.387-38.655-85.7ZM1216.3,423.089a9.843,9.843,0,0,1-4.08-.886,9.947,9.947,0,0,1-4.981-13.146l63.651-141.1c3.216-7.149,14.918-7.149,18.135,0l63.651,141.1a9.947,9.947,0,0,1-15.042,12.043l-85.143-63.977-27.117,60.108A9.947,9.947,0,0,1,1216.3,423.089Z" transform="translate(-1014.016 -159.09)" fill="#e8e8e8" stroke="#cdcdcd" stroke-miterlimit="10" stroke-width="2.171"/>
                <path id="Path_1781" data-name="Path 1781" d="M1243.109,328.977l57.738,43.387-38.655-85.7Zm-44.575,84.552a9.957,9.957,0,0,1-9.06-14.032l63.652-141.1c3.216-7.148,14.918-7.148,18.134,0l63.652,141.1a9.948,9.948,0,0,1-15.042,12.044l-85.143-63.978-27.117,60.108A9.948,9.948,0,0,1,1198.534,413.528Z" transform="translate(-1012.278 -158.154)" fill="#e0e0e0" stroke="#c8c8c8" stroke-miterlimit="10" stroke-width="2.073"/>
                <path id="Path_1782" data-name="Path 1782" d="M1225.343,319.416l57.738,43.387-38.656-85.7Zm-44.576,84.553a9.959,9.959,0,0,1-9.059-14.033l63.652-141.1c3.216-7.148,14.918-7.148,18.134,0l63.652,141.1a9.948,9.948,0,0,1-15.042,12.044L1216.959,338l-27.117,60.108A9.951,9.951,0,0,1,1180.766,403.968Z" transform="translate(-1010.54 -157.219)" fill="#d8d8d8" stroke="#c2c2c2" stroke-miterlimit="10" stroke-width="1.975"/>
                <path id="Path_1783" data-name="Path 1783" d="M1207.576,309.855l57.738,43.387-38.656-85.7ZM1163,394.407a9.837,9.837,0,0,1-4.079-.886,9.947,9.947,0,0,1-4.981-13.147l63.651-141.1c3.217-7.148,14.919-7.148,18.135,0l63.652,141.1a9.948,9.948,0,0,1-15.042,12.044l-85.143-63.977-27.117,60.108A9.95,9.95,0,0,1,1163,394.407Z" transform="translate(-1008.801 -156.283)" fill="#d1d1d1" stroke="#bdbdbd" stroke-miterlimit="10" stroke-width="1.878"/>
                <path id="Path_1784" data-name="Path 1784" d="M1189.809,300.294l57.738,43.387-38.656-85.7Zm-44.576,84.552a9.845,9.845,0,0,1-4.08-.886,9.947,9.947,0,0,1-4.98-13.147l63.651-141.1c3.217-7.149,14.918-7.149,18.135,0l63.652,141.1a9.948,9.948,0,0,1-15.042,12.044l-85.143-63.977-27.117,60.108A9.951,9.951,0,0,1,1145.232,384.846Z" transform="translate(-1007.063 -155.348)" fill="#c9c9c9" stroke="#b7b7b7" stroke-miterlimit="10" stroke-width="1.78"/>
                <path id="Path_1785" data-name="Path 1785" d="M1172.041,290.733l57.739,43.387-38.656-85.7Zm-44.576,84.552a9.843,9.843,0,0,1-4.079-.886,9.946,9.946,0,0,1-4.98-13.146l63.651-141.1c3.217-7.149,14.918-7.149,18.135,0l63.651,141.1A9.947,9.947,0,0,1,1248.8,373.3l-85.143-63.977-27.117,60.108A9.949,9.949,0,0,1,1127.465,375.285Z" transform="translate(-1005.325 -154.412)" fill="#c1c1c1" stroke="#b2b2b2" stroke-miterlimit="10" stroke-width="1.683"/>
                <path id="Path_1786" data-name="Path 1786" d="M1154.274,281.172l57.739,43.387-38.656-85.7ZM1109.7,365.724a9.842,9.842,0,0,1-4.079-.886,9.946,9.946,0,0,1-4.98-13.146l63.651-141.1c3.217-7.149,14.918-7.149,18.135,0l63.651,141.1a9.947,9.947,0,0,1-15.042,12.043l-85.143-63.977-27.117,60.108A9.947,9.947,0,0,1,1109.7,365.724Z" transform="translate(-1003.586 -153.477)" fill="#b9b9b9" stroke="#acacac" stroke-miterlimit="10" stroke-width="1.585"/>
                <path id="Path_1787" data-name="Path 1787" d="M1136.507,271.612,1194.245,315l-38.655-85.7Zm-44.576,84.552a9.957,9.957,0,0,1-9.06-14.032l63.652-141.1c3.216-7.148,14.918-7.148,18.135,0l63.651,141.1a9.947,9.947,0,0,1-15.042,12.044L1128.123,290.2,1101.006,350.3A9.948,9.948,0,0,1,1091.931,356.163Z" transform="translate(-1001.848 -152.541)" fill="#b2b2b2" stroke="#a7a7a7" stroke-miterlimit="10" stroke-width="1.488"/>
                <path id="Path_1788" data-name="Path 1788" d="M1118.74,262.051l57.738,43.387-38.655-85.7ZM1074.164,346.6a9.959,9.959,0,0,1-9.06-14.033l63.652-141.1c3.216-7.148,14.918-7.148,18.135,0l63.651,141.1a9.948,9.948,0,0,1-15.043,12.044l-85.143-63.977-27.117,60.108A9.949,9.949,0,0,1,1074.164,346.6Z" transform="translate(-1000.109 -151.606)" fill="#aaa" stroke="#a1a1a1" stroke-miterlimit="10" stroke-width="1.39"/>
                <path id="Path_1789" data-name="Path 1789" d="M1100.973,252.49l57.738,43.387-38.656-85.7ZM1056.4,337.042a9.84,9.84,0,0,1-4.078-.886,9.947,9.947,0,0,1-4.981-13.147l63.652-141.1c3.216-7.148,14.918-7.148,18.134,0l63.651,141.1a9.947,9.947,0,0,1-15.042,12.044l-85.143-63.977-27.117,60.108A9.95,9.95,0,0,1,1056.4,337.042Z" transform="translate(-998.371 -150.67)" fill="#a2a2a2" stroke="#9c9c9c" stroke-miterlimit="10" stroke-width="1.293"/>
                <path id="Path_1790" data-name="Path 1790" d="M1083.206,242.929l57.738,43.387-38.656-85.7Zm-44.576,84.553a9.837,9.837,0,0,1-4.079-.886,9.946,9.946,0,0,1-4.981-13.147l63.651-141.1c3.217-7.149,14.919-7.149,18.135,0l63.652,141.1a9.948,9.948,0,0,1-15.043,12.044l-85.143-63.977L1047.7,321.623A9.951,9.951,0,0,1,1038.629,327.481Z" transform="translate(-996.632 -149.735)" fill="#9a9a9a" stroke="#969696" stroke-miterlimit="10" stroke-width="1.195"/>
                <path id="Path_1791" data-name="Path 1791" d="M1065.438,233.369l57.738,43.386-38.656-85.7Zm-44.576,84.552a9.837,9.837,0,0,1-4.079-.886,9.946,9.946,0,0,1-4.981-13.146l63.651-141.1c3.217-7.149,14.919-7.149,18.135,0l63.652,141.1a9.947,9.947,0,0,1-15.042,12.043l-85.143-63.977-27.117,60.108A9.951,9.951,0,0,1,1020.862,317.92Z" transform="translate(-994.894 -148.799)" fill="#939393" stroke="#919191" stroke-miterlimit="10" stroke-width="1.098"/>
                <path id="Path_1792" data-name="Path 1792" d="M1047.672,223.808l57.738,43.387-38.656-85.7Zm-44.577,84.552a9.78,9.78,0,0,1-4.079-.886,9.936,9.936,0,0,1-4.98-13.146l63.651-141.1c3.217-7.149,14.918-7.149,18.135,0l63.651,141.1a9.947,9.947,0,0,1-15.043,12.043l-85.142-63.977L1012.171,302.5A9.95,9.95,0,0,1,1003.095,308.359Z" transform="translate(-993.155 -147.864)" fill="#8b8b8b" stroke="#8b8b8b" stroke-miterlimit="10" stroke-width="1"/>
              </g>
            </g>
            <path id="Path_1793" data-name="Path 1793" d="M1038.185,219.824l57.738,43.387-38.656-85.7Zm-44.441,84.66a9.784,9.784,0,0,1-4.08-.88,9.937,9.937,0,0,1-5-13.138l63.413-141.209c3.2-7.153,14.906-7.173,18.135-.03L1130.1,290.221a9.947,9.947,0,0,1-15.022,12.069l-85.251-63.834L1002.81,298.61A9.95,9.95,0,0,1,993.744,304.484Z" transform="translate(-983.789 -143.881)" fill="#fff"/>
          </g>
          <g id="Group_1898" data-name="Group 1898" transform="translate(1100.178 309.576)">
            <g id="Group_1897" data-name="Group 1897" transform="translate(8.043 1.632)">
              <g id="Group_1896" data-name="Group 1896">
                <path id="Path_1794" data-name="Path 1794" d="M1097.29,632.1l57.738,43.387-38.655-85.7Zm-44.576,84.552a9.791,9.791,0,0,1-4.079-.885,9.937,9.937,0,0,1-4.98-13.147l63.651-141.1c3.217-7.148,14.918-7.148,18.135,0l63.651,141.1a9.947,9.947,0,0,1-15.042,12.044l-85.142-63.978L1061.79,710.79A9.949,9.949,0,0,1,1052.714,716.648Z" transform="translate(-802.344 -426.773)" fill="#fff" stroke="#dedede" stroke-miterlimit="10" stroke-width="2.463"/>
                <path id="Path_1795" data-name="Path 1795" d="M1079.523,622.536l57.739,43.387-38.656-85.7Zm-44.576,84.553a9.843,9.843,0,0,1-4.079-.886,9.947,9.947,0,0,1-4.98-13.147l63.651-141.1c3.217-7.148,14.918-7.148,18.135,0l63.651,141.1a9.948,9.948,0,0,1-15.043,12.044l-85.143-63.977-27.117,60.108A9.949,9.949,0,0,1,1034.947,707.088Z" transform="translate(-800.605 -425.837)" fill="#f7f7f7" stroke="#d8d8d8" stroke-miterlimit="10" stroke-width="2.366"/>
                <path id="Path_1796" data-name="Path 1796" d="M1061.756,612.975l57.739,43.387-38.655-85.7Zm-44.576,84.553a9.843,9.843,0,0,1-4.08-.886,9.948,9.948,0,0,1-4.981-13.147l63.652-141.1c3.217-7.148,14.918-7.148,18.135,0l63.651,141.1a9.947,9.947,0,0,1-15.042,12.044l-85.143-63.977-27.117,60.108A9.949,9.949,0,0,1,1017.18,697.527Z" transform="translate(-798.867 -424.902)" fill="#f0f0f0" stroke="#d3d3d3" stroke-miterlimit="10" stroke-width="2.268"/>
                <path id="Path_1797" data-name="Path 1797" d="M1043.989,603.414l57.738,43.386-38.655-85.7Zm-44.576,84.552a9.842,9.842,0,0,1-4.08-.886,9.948,9.948,0,0,1-4.981-13.146L1054,532.833c3.216-7.149,14.918-7.149,18.135,0l63.651,141.1a9.947,9.947,0,0,1-15.042,12.043L1035.605,622l-27.117,60.108A9.949,9.949,0,0,1,999.413,687.966Z" transform="translate(-797.128 -423.967)" fill="#e8e8e8" stroke="#cdcdcd" stroke-miterlimit="10" stroke-width="2.171"/>
                <path id="Path_1798" data-name="Path 1798" d="M1026.222,593.854l57.738,43.386-38.655-85.7Zm-44.576,84.552a9.842,9.842,0,0,1-4.079-.886,9.947,9.947,0,0,1-4.981-13.146l63.652-141.1c3.216-7.149,14.918-7.149,18.134,0l63.652,141.1a9.947,9.947,0,0,1-15.043,12.043l-85.143-63.977-27.117,60.108A9.949,9.949,0,0,1,981.645,678.405Z" transform="translate(-795.39 -423.031)" fill="#e0e0e0" stroke="#c8c8c8" stroke-miterlimit="10" stroke-width="2.073"/>
                <path id="Path_1799" data-name="Path 1799" d="M1008.455,584.293l57.738,43.387-38.656-85.7Zm-44.576,84.552a9.84,9.84,0,0,1-4.079-.886,9.946,9.946,0,0,1-4.981-13.146l63.652-141.1c3.216-7.148,14.918-7.148,18.134,0l63.652,141.1a9.947,9.947,0,0,1-15.042,12.043l-85.143-63.977-27.117,60.108A9.949,9.949,0,0,1,963.878,668.844Z" transform="translate(-793.651 -422.096)" fill="#d8d8d8" stroke="#c2c2c2" stroke-miterlimit="10" stroke-width="1.975"/>
                <path id="Path_1800" data-name="Path 1800" d="M990.688,574.732l57.738,43.387-38.656-85.7Zm-44.576,84.552a9.957,9.957,0,0,1-9.059-14.032l63.651-141.1c3.217-7.148,14.919-7.148,18.135,0l63.652,141.1a9.948,9.948,0,0,1-15.043,12.044L982.3,593.317l-27.117,60.108A9.949,9.949,0,0,1,946.111,659.283Z" transform="translate(-791.913 -421.16)" fill="#d1d1d1" stroke="#bdbdbd" stroke-miterlimit="10" stroke-width="1.878"/>
                <path id="Path_1801" data-name="Path 1801" d="M972.921,565.171l57.738,43.387L992,522.856Zm-44.576,84.553a9.958,9.958,0,0,1-9.059-14.033l63.651-141.1c3.217-7.148,14.918-7.148,18.135,0l63.651,141.1a9.947,9.947,0,0,1-15.043,12.044l-85.142-63.977L937.42,643.865A9.95,9.95,0,0,1,928.344,649.723Z" transform="translate(-790.175 -420.225)" fill="#c9c9c9" stroke="#b7b7b7" stroke-miterlimit="10" stroke-width="1.78"/>
                <path id="Path_1802" data-name="Path 1802" d="M955.153,555.61,1012.892,599l-38.656-85.7Zm-44.575,84.553a9.844,9.844,0,0,1-4.08-.886,9.947,9.947,0,0,1-4.98-13.147l63.651-141.1c3.217-7.148,14.918-7.148,18.135,0l63.651,141.1a9.947,9.947,0,0,1-15.042,12.044L946.769,574.2,919.652,634.3A9.949,9.949,0,0,1,910.577,640.162Z" transform="translate(-788.436 -419.289)" fill="#c1c1c1" stroke="#b2b2b2" stroke-miterlimit="10" stroke-width="1.683"/>
                <path id="Path_1803" data-name="Path 1803" d="M937.386,546.049l57.739,43.386-38.656-85.7ZM892.81,630.6a9.846,9.846,0,0,1-4.08-.886,9.947,9.947,0,0,1-4.98-13.147l63.651-141.1c3.217-7.149,14.918-7.149,18.135,0l63.651,141.1a9.948,9.948,0,0,1-15.043,12.044L929,564.635l-27.117,60.108A9.949,9.949,0,0,1,892.81,630.6Z" transform="translate(-786.698 -418.354)" fill="#b9b9b9" stroke="#acacac" stroke-miterlimit="10" stroke-width="1.585"/>
                <path id="Path_1804" data-name="Path 1804" d="M919.619,536.488l57.738,43.387-38.655-85.7ZM875.043,621.04a9.845,9.845,0,0,1-4.079-.886,9.948,9.948,0,0,1-4.981-13.146l63.652-141.1c3.216-7.149,14.918-7.149,18.135,0l63.651,141.1a9.947,9.947,0,0,1-15.042,12.043l-85.143-63.977-27.117,60.108A9.949,9.949,0,0,1,875.043,621.04Z" transform="translate(-784.96 -417.418)" fill="#b2b2b2" stroke="#a7a7a7" stroke-miterlimit="10" stroke-width="1.488"/>
                <path id="Path_1805" data-name="Path 1805" d="M901.852,526.928l57.738,43.387-38.655-85.7Zm-44.575,84.552a9.84,9.84,0,0,1-4.08-.886,9.947,9.947,0,0,1-4.981-13.146l63.652-141.1c3.216-7.149,14.918-7.149,18.135,0l63.651,141.1a9.947,9.947,0,0,1-15.043,12.043l-85.143-63.977-27.117,60.108A9.948,9.948,0,0,1,857.276,611.479Z" transform="translate(-783.221 -416.483)" fill="#aaa" stroke="#a1a1a1" stroke-miterlimit="10" stroke-width="1.39"/>
                <path id="Path_1806" data-name="Path 1806" d="M884.085,517.367l57.738,43.387-38.656-85.7Zm-44.576,84.552a9.957,9.957,0,0,1-9.059-14.032l63.652-141.1c3.216-7.148,14.918-7.148,18.134,0l63.652,141.1a9.948,9.948,0,0,1-15.043,12.044L875.7,535.952,848.584,596.06A9.949,9.949,0,0,1,839.508,601.918Z" transform="translate(-781.483 -415.547)" fill="#a2a2a2" stroke="#9c9c9c" stroke-miterlimit="10" stroke-width="1.293"/>
                <path id="Path_1807" data-name="Path 1807" d="M866.318,507.806l57.738,43.387-38.656-85.7Zm-44.576,84.553a9.959,9.959,0,0,1-9.06-14.033l63.651-141.1c3.217-7.148,14.919-7.148,18.135,0l63.651,141.1a9.947,9.947,0,0,1-15.043,12.044l-85.143-63.978L830.817,586.5A9.95,9.95,0,0,1,821.741,592.358Z" transform="translate(-779.744 -414.612)" fill="#9a9a9a" stroke="#969696" stroke-miterlimit="10" stroke-width="1.195"/>
                <path id="Path_1808" data-name="Path 1808" d="M848.551,498.245l57.738,43.387-38.656-85.7ZM803.974,582.8a9.838,9.838,0,0,1-4.079-.886,9.947,9.947,0,0,1-4.981-13.147l63.651-141.1c3.217-7.148,14.918-7.148,18.135,0l63.652,141.1a9.948,9.948,0,0,1-15.043,12.044l-85.143-63.977L813.05,576.939A9.95,9.95,0,0,1,803.974,582.8Z" transform="translate(-778.006 -413.676)" fill="#939393" stroke="#919191" stroke-miterlimit="10" stroke-width="1.098"/>
                <path id="Path_1809" data-name="Path 1809" d="M830.783,488.684l57.738,43.387-38.656-85.7Zm-44.576,84.553a9.78,9.78,0,0,1-4.079-.886,9.937,9.937,0,0,1-4.98-13.147L840.8,418.1c3.217-7.149,14.918-7.149,18.135,0l63.651,141.1a9.947,9.947,0,0,1-15.043,12.044L822.4,507.27l-27.117,60.108A9.951,9.951,0,0,1,786.207,573.236Z" transform="translate(-776.268 -412.741)" fill="#8b8b8b" stroke="#8b8b8b" stroke-miterlimit="10" stroke-width="1"/>
              </g>
            </g>
            <path id="Path_1810" data-name="Path 1810" d="M821.748,486.875l57.739,43.387-38.656-85.7Zm-44.44,84.66a9.78,9.78,0,0,1-4.081-.88,9.936,9.936,0,0,1-5-13.138l63.413-141.208c3.2-7.154,14.906-7.174,18.135-.031l63.889,140.994a9.947,9.947,0,0,1-15.022,12.069l-85.251-63.834-27.015,60.154A9.951,9.951,0,0,1,777.308,571.535Z" transform="translate(-767.352 -410.932)" fill="#fff"/>
          </g>
        </g>
      </g>
    </g>
  </g>
</svg>
